G75*
%MOIN*%
%OFA0B0*%
%FSLAX25Y25*%
%IPPOS*%
%LPD*%
%AMOC8*
5,1,8,0,0,1.08239X$1,22.5*
%
%ADD10C,0.07087*%
%ADD11C,0.06000*%
%ADD12C,0.05512*%
%ADD13R,0.06299X0.06299*%
%ADD14C,0.06299*%
%ADD15C,0.06299*%
%ADD16C,0.06600*%
%ADD17C,0.02000*%
D10*
X0052831Y0098874D02*
X0059918Y0098874D01*
X0059918Y0108874D02*
X0052831Y0108874D01*
X0052831Y0118874D02*
X0059918Y0118874D01*
X0059918Y0128874D02*
X0052831Y0128874D01*
X0052831Y0138874D02*
X0059918Y0138874D01*
X0059918Y0148874D02*
X0052831Y0148874D01*
X0052831Y0158874D02*
X0059918Y0158874D01*
X0082831Y0158874D02*
X0089918Y0158874D01*
X0089918Y0148874D02*
X0082831Y0148874D01*
X0082831Y0138874D02*
X0089918Y0138874D01*
X0089918Y0128874D02*
X0082831Y0128874D01*
X0082831Y0118874D02*
X0089918Y0118874D01*
X0089918Y0108874D02*
X0082831Y0108874D01*
X0082831Y0098874D02*
X0089918Y0098874D01*
D11*
X0107038Y0078311D03*
X0126099Y0066437D03*
X0126099Y0046906D03*
X0107038Y0038311D03*
X0105469Y0024937D03*
X0120784Y0024937D03*
X0140784Y0024937D03*
X0166099Y0046906D03*
X0166099Y0066437D03*
X0085469Y0024937D03*
X0076575Y0073638D03*
X0056575Y0073638D03*
D12*
X0190784Y0089504D03*
X0190784Y0128874D03*
D13*
X0064249Y0026472D03*
D14*
X0054249Y0026472D03*
D15*
X0061217Y0043598D02*
X0061217Y0049898D01*
X0071217Y0049898D02*
X0071217Y0043598D01*
X0081217Y0043598D02*
X0081217Y0049898D01*
D16*
X0116768Y0086873D02*
X0116768Y0093473D01*
X0126768Y0093473D02*
X0126768Y0086873D01*
X0136768Y0086873D02*
X0136768Y0093473D01*
D17*
X0201572Y0012811D02*
X0044091Y0012811D01*
X0044091Y0178165D01*
X0201572Y0178165D01*
X0201572Y0012811D01*
X0201572Y0012931D02*
X0044091Y0012931D01*
X0044091Y0014930D02*
X0201572Y0014930D01*
X0201572Y0016928D02*
X0044091Y0016928D01*
X0044091Y0018927D02*
X0201572Y0018927D01*
X0201572Y0020925D02*
X0143843Y0020925D01*
X0143616Y0020698D02*
X0145023Y0022105D01*
X0145784Y0023942D01*
X0145784Y0025932D01*
X0145023Y0027769D01*
X0143616Y0029176D01*
X0141779Y0029937D01*
X0140027Y0029937D01*
X0129768Y0040195D01*
X0129768Y0043504D01*
X0130338Y0044073D01*
X0131099Y0045911D01*
X0131099Y0047663D01*
X0139312Y0055875D01*
X0139768Y0056978D01*
X0139768Y0082379D01*
X0139771Y0082380D01*
X0141261Y0083871D01*
X0142068Y0085819D01*
X0142068Y0094527D01*
X0141261Y0096475D01*
X0139771Y0097966D01*
X0137823Y0098773D01*
X0135714Y0098773D01*
X0135633Y0098740D01*
X0112956Y0121417D01*
X0111853Y0121874D01*
X0094675Y0121874D01*
X0094617Y0122014D01*
X0093058Y0123573D01*
X0092332Y0123874D01*
X0093058Y0124175D01*
X0094617Y0125734D01*
X0094675Y0125874D01*
X0170880Y0125874D01*
X0187784Y0108970D01*
X0187784Y0093230D01*
X0186752Y0092198D01*
X0186028Y0090450D01*
X0186028Y0088991D01*
X0168070Y0071033D01*
X0167094Y0071437D01*
X0165105Y0071437D01*
X0163267Y0070676D01*
X0161860Y0069269D01*
X0161099Y0067432D01*
X0161099Y0065442D01*
X0161860Y0063605D01*
X0163099Y0062366D01*
X0163099Y0050977D01*
X0161860Y0049738D01*
X0161099Y0047900D01*
X0161099Y0045911D01*
X0161860Y0044073D01*
X0163267Y0042667D01*
X0165105Y0041906D01*
X0167094Y0041906D01*
X0168931Y0042667D01*
X0170338Y0044073D01*
X0171099Y0045911D01*
X0171099Y0047900D01*
X0170338Y0049738D01*
X0169099Y0050977D01*
X0169099Y0062366D01*
X0170338Y0063605D01*
X0171099Y0065442D01*
X0171099Y0065576D01*
X0190271Y0084748D01*
X0191730Y0084748D01*
X0193478Y0085472D01*
X0194816Y0086810D01*
X0195540Y0088558D01*
X0195540Y0090450D01*
X0194816Y0092198D01*
X0193784Y0093230D01*
X0193784Y0110809D01*
X0193327Y0111912D01*
X0192483Y0112756D01*
X0173822Y0131417D01*
X0172719Y0131874D01*
X0094675Y0131874D01*
X0094617Y0132014D01*
X0093058Y0133573D01*
X0092323Y0133878D01*
X0092823Y0134133D01*
X0093529Y0134646D01*
X0094146Y0135263D01*
X0094659Y0135969D01*
X0095055Y0136746D01*
X0095325Y0137576D01*
X0095461Y0138438D01*
X0095461Y0138874D01*
X0095461Y0139310D01*
X0095325Y0140172D01*
X0095055Y0141002D01*
X0094659Y0141779D01*
X0094146Y0142485D01*
X0093529Y0143102D01*
X0092823Y0143615D01*
X0092323Y0143870D01*
X0093058Y0144175D01*
X0094617Y0145734D01*
X0095461Y0147771D01*
X0095461Y0149977D01*
X0094617Y0152014D01*
X0093058Y0153573D01*
X0092323Y0153878D01*
X0092823Y0154133D01*
X0093529Y0154646D01*
X0094146Y0155263D01*
X0094659Y0155969D01*
X0095055Y0156746D01*
X0095325Y0157576D01*
X0095461Y0158438D01*
X0095461Y0158874D01*
X0095461Y0159310D01*
X0095325Y0160172D01*
X0095055Y0161002D01*
X0094659Y0161779D01*
X0094146Y0162485D01*
X0093529Y0163102D01*
X0092823Y0163615D01*
X0092046Y0164011D01*
X0091216Y0164281D01*
X0090354Y0164417D01*
X0086375Y0164417D01*
X0086375Y0158874D01*
X0095461Y0158874D01*
X0086375Y0158874D01*
X0086375Y0158874D01*
X0086375Y0158874D01*
X0086375Y0164417D01*
X0082395Y0164417D01*
X0081533Y0164281D01*
X0080703Y0164011D01*
X0079926Y0163615D01*
X0079220Y0163102D01*
X0078603Y0162485D01*
X0078090Y0161779D01*
X0077694Y0161002D01*
X0077425Y0160172D01*
X0077288Y0159310D01*
X0077288Y0158874D01*
X0077288Y0158438D01*
X0077425Y0157576D01*
X0077694Y0156746D01*
X0078090Y0155969D01*
X0078603Y0155263D01*
X0079220Y0154646D01*
X0079926Y0154133D01*
X0080427Y0153878D01*
X0079691Y0153573D01*
X0078132Y0152014D01*
X0077288Y0149977D01*
X0077288Y0147771D01*
X0078132Y0145734D01*
X0079691Y0144175D01*
X0080427Y0143870D01*
X0079926Y0143615D01*
X0079220Y0143102D01*
X0078603Y0142485D01*
X0078090Y0141779D01*
X0077694Y0141002D01*
X0077425Y0140172D01*
X0077288Y0139310D01*
X0077288Y0138874D01*
X0077288Y0138438D01*
X0077425Y0137576D01*
X0077694Y0136746D01*
X0078090Y0135969D01*
X0078603Y0135263D01*
X0079220Y0134646D01*
X0079926Y0134133D01*
X0080427Y0133878D01*
X0079691Y0133573D01*
X0078132Y0132014D01*
X0077288Y0129977D01*
X0077288Y0127771D01*
X0078132Y0125734D01*
X0079691Y0124175D01*
X0080417Y0123874D01*
X0079691Y0123573D01*
X0078132Y0122014D01*
X0077288Y0119977D01*
X0077288Y0117771D01*
X0078132Y0115734D01*
X0079691Y0114175D01*
X0080417Y0113874D01*
X0079691Y0113573D01*
X0078132Y0112014D01*
X0077288Y0109977D01*
X0077288Y0107771D01*
X0078132Y0105734D01*
X0079691Y0104175D01*
X0080417Y0103874D01*
X0079691Y0103573D01*
X0078132Y0102014D01*
X0077288Y0099977D01*
X0077288Y0097771D01*
X0078132Y0095734D01*
X0079691Y0094175D01*
X0081729Y0093331D01*
X0083375Y0093331D01*
X0083375Y0084104D01*
X0083831Y0083001D01*
X0104083Y0062749D01*
X0104083Y0056779D01*
X0104038Y0056669D01*
X0104038Y0042382D01*
X0102799Y0041143D01*
X0102038Y0039306D01*
X0102038Y0037316D01*
X0102469Y0036275D01*
X0102469Y0029008D01*
X0101230Y0027769D01*
X0100469Y0025932D01*
X0100469Y0023942D01*
X0101230Y0022105D01*
X0102637Y0020698D01*
X0104475Y0019937D01*
X0106464Y0019937D01*
X0108301Y0020698D01*
X0109708Y0022105D01*
X0110469Y0023942D01*
X0110469Y0025932D01*
X0109708Y0027769D01*
X0108469Y0029008D01*
X0108469Y0033492D01*
X0109870Y0034072D01*
X0111276Y0035479D01*
X0112038Y0037316D01*
X0112038Y0039306D01*
X0111276Y0041143D01*
X0110038Y0042382D01*
X0110038Y0055411D01*
X0110083Y0055521D01*
X0110083Y0064589D01*
X0109627Y0065691D01*
X0089375Y0085943D01*
X0089375Y0093331D01*
X0091021Y0093331D01*
X0093058Y0094175D01*
X0094617Y0095734D01*
X0095461Y0097771D01*
X0095461Y0099977D01*
X0094617Y0102014D01*
X0093058Y0103573D01*
X0092332Y0103874D01*
X0093058Y0104175D01*
X0094617Y0105734D01*
X0094675Y0105874D01*
X0104266Y0105874D01*
X0112970Y0097170D01*
X0112275Y0096475D01*
X0111468Y0094527D01*
X0111468Y0086984D01*
X0107795Y0083311D01*
X0106043Y0083311D01*
X0104205Y0082550D01*
X0102799Y0081143D01*
X0102038Y0079306D01*
X0102038Y0077316D01*
X0102799Y0075479D01*
X0104205Y0074072D01*
X0106043Y0073311D01*
X0108032Y0073311D01*
X0109870Y0074072D01*
X0111276Y0075479D01*
X0112038Y0077316D01*
X0112038Y0079068D01*
X0114886Y0081916D01*
X0115714Y0081573D01*
X0117823Y0081573D01*
X0119771Y0082380D01*
X0121261Y0083871D01*
X0121768Y0085095D01*
X0122275Y0083871D01*
X0123099Y0083047D01*
X0123099Y0070508D01*
X0121860Y0069269D01*
X0121099Y0067432D01*
X0121099Y0065442D01*
X0121860Y0063605D01*
X0123267Y0062198D01*
X0125105Y0061437D01*
X0127094Y0061437D01*
X0128931Y0062198D01*
X0130338Y0063605D01*
X0131099Y0065442D01*
X0131099Y0067432D01*
X0130338Y0069269D01*
X0129099Y0070508D01*
X0129099Y0082102D01*
X0129771Y0082380D01*
X0131261Y0083871D01*
X0131768Y0085095D01*
X0132275Y0083871D01*
X0133766Y0082380D01*
X0133768Y0082379D01*
X0133768Y0058817D01*
X0126856Y0051905D01*
X0125105Y0051905D01*
X0123267Y0051144D01*
X0121860Y0049738D01*
X0121099Y0047900D01*
X0121099Y0045911D01*
X0121860Y0044073D01*
X0123267Y0042667D01*
X0123768Y0042459D01*
X0123768Y0038356D01*
X0124225Y0037253D01*
X0125069Y0036409D01*
X0135784Y0025694D01*
X0135784Y0023942D01*
X0136545Y0022105D01*
X0137952Y0020698D01*
X0139790Y0019937D01*
X0141779Y0019937D01*
X0143616Y0020698D01*
X0145362Y0022924D02*
X0201572Y0022924D01*
X0201572Y0024922D02*
X0145784Y0024922D01*
X0145374Y0026921D02*
X0201572Y0026921D01*
X0201572Y0028919D02*
X0143873Y0028919D01*
X0140784Y0024937D02*
X0126768Y0038953D01*
X0126768Y0046236D01*
X0126099Y0046906D01*
X0136768Y0057575D01*
X0136768Y0090173D01*
X0136768Y0093362D01*
X0111257Y0118874D01*
X0086375Y0118874D01*
X0079011Y0114855D02*
X0063738Y0114855D01*
X0063058Y0114175D02*
X0064617Y0115734D01*
X0065461Y0117771D01*
X0065461Y0119977D01*
X0064617Y0122014D01*
X0063058Y0123573D01*
X0062323Y0123878D01*
X0062823Y0124133D01*
X0063529Y0124646D01*
X0064146Y0125263D01*
X0064659Y0125969D01*
X0065055Y0126746D01*
X0065325Y0127576D01*
X0065461Y0128438D01*
X0065461Y0128874D01*
X0065461Y0129310D01*
X0065325Y0130172D01*
X0065055Y0131002D01*
X0064659Y0131779D01*
X0064146Y0132485D01*
X0063529Y0133102D01*
X0062823Y0133615D01*
X0062323Y0133870D01*
X0063058Y0134175D01*
X0064617Y0135734D01*
X0065461Y0137771D01*
X0065461Y0139977D01*
X0064617Y0142014D01*
X0063058Y0143573D01*
X0062323Y0143878D01*
X0062823Y0144133D01*
X0063529Y0144646D01*
X0064146Y0145263D01*
X0064659Y0145969D01*
X0065055Y0146746D01*
X0065325Y0147576D01*
X0065461Y0148438D01*
X0065461Y0148874D01*
X0056375Y0148874D01*
X0056375Y0148874D01*
X0065461Y0148874D01*
X0065461Y0149310D01*
X0065325Y0150172D01*
X0065055Y0151002D01*
X0064659Y0151779D01*
X0064146Y0152485D01*
X0063529Y0153102D01*
X0062823Y0153615D01*
X0062323Y0153870D01*
X0063058Y0154175D01*
X0064617Y0155734D01*
X0065461Y0157771D01*
X0065461Y0159977D01*
X0064617Y0162014D01*
X0063058Y0163573D01*
X0061021Y0164417D01*
X0051729Y0164417D01*
X0049691Y0163573D01*
X0048132Y0162014D01*
X0047288Y0159977D01*
X0047288Y0157771D01*
X0048132Y0155734D01*
X0049691Y0154175D01*
X0050427Y0153870D01*
X0049926Y0153615D01*
X0049220Y0153102D01*
X0048603Y0152485D01*
X0048090Y0151779D01*
X0047694Y0151002D01*
X0047425Y0150172D01*
X0047288Y0149310D01*
X0047288Y0148874D01*
X0047288Y0148438D01*
X0047425Y0147576D01*
X0047694Y0146746D01*
X0048090Y0145969D01*
X0048603Y0145263D01*
X0049220Y0144646D01*
X0049926Y0144133D01*
X0050427Y0143878D01*
X0049691Y0143573D01*
X0048132Y0142014D01*
X0047288Y0139977D01*
X0047288Y0137771D01*
X0048132Y0135734D01*
X0049691Y0134175D01*
X0050427Y0133870D01*
X0049926Y0133615D01*
X0049220Y0133102D01*
X0048603Y0132485D01*
X0048090Y0131779D01*
X0047694Y0131002D01*
X0047425Y0130172D01*
X0047288Y0129310D01*
X0047288Y0128874D01*
X0047288Y0128438D01*
X0047425Y0127576D01*
X0047694Y0126746D01*
X0048090Y0125969D01*
X0048603Y0125263D01*
X0049220Y0124646D01*
X0049926Y0124133D01*
X0050427Y0123878D01*
X0049691Y0123573D01*
X0048132Y0122014D01*
X0047288Y0119977D01*
X0047288Y0117771D01*
X0048132Y0115734D01*
X0049691Y0114175D01*
X0050427Y0113870D01*
X0049926Y0113615D01*
X0049220Y0113102D01*
X0048603Y0112485D01*
X0048090Y0111779D01*
X0047694Y0111002D01*
X0047425Y0110172D01*
X0047288Y0109310D01*
X0047288Y0108874D01*
X0047288Y0108438D01*
X0047425Y0107576D01*
X0047694Y0106746D01*
X0048090Y0105969D01*
X0048603Y0105263D01*
X0049220Y0104646D01*
X0049926Y0104133D01*
X0050427Y0103878D01*
X0049691Y0103573D01*
X0048132Y0102014D01*
X0047288Y0099977D01*
X0047288Y0097771D01*
X0048132Y0095734D01*
X0049691Y0094175D01*
X0051729Y0093331D01*
X0053375Y0093331D01*
X0053375Y0093241D01*
X0053831Y0092138D01*
X0054675Y0091295D01*
X0054675Y0091295D01*
X0071575Y0074395D01*
X0071575Y0072643D01*
X0072336Y0070806D01*
X0073742Y0069399D01*
X0075580Y0068638D01*
X0077332Y0068638D01*
X0078217Y0067753D01*
X0078217Y0054180D01*
X0076852Y0052815D01*
X0076217Y0051283D01*
X0075583Y0052815D01*
X0074134Y0054263D01*
X0072242Y0055047D01*
X0070193Y0055047D01*
X0068300Y0054263D01*
X0066852Y0052815D01*
X0066217Y0051283D01*
X0065583Y0052815D01*
X0064134Y0054263D01*
X0062242Y0055047D01*
X0060193Y0055047D01*
X0058300Y0054263D01*
X0056852Y0052815D01*
X0056068Y0050922D01*
X0056068Y0042574D01*
X0056852Y0040681D01*
X0058300Y0039233D01*
X0060193Y0038449D01*
X0062242Y0038449D01*
X0064134Y0039233D01*
X0065583Y0040681D01*
X0066217Y0042213D01*
X0066852Y0040681D01*
X0068217Y0039316D01*
X0068217Y0034684D01*
X0065156Y0031622D01*
X0060271Y0031622D01*
X0059099Y0030450D01*
X0059099Y0028209D01*
X0059021Y0028449D01*
X0058653Y0029171D01*
X0058177Y0029827D01*
X0057603Y0030400D01*
X0056948Y0030877D01*
X0056225Y0031245D01*
X0055455Y0031495D01*
X0054654Y0031622D01*
X0054249Y0031622D01*
X0054249Y0026473D01*
X0054249Y0026473D01*
X0054249Y0031622D01*
X0053843Y0031622D01*
X0053043Y0031495D01*
X0052272Y0031245D01*
X0051550Y0030877D01*
X0050894Y0030400D01*
X0050321Y0029827D01*
X0049844Y0029171D01*
X0049476Y0028449D01*
X0049226Y0027678D01*
X0049099Y0026878D01*
X0049099Y0026472D01*
X0049099Y0026067D01*
X0049226Y0025267D01*
X0049476Y0024496D01*
X0049844Y0023773D01*
X0050321Y0023118D01*
X0050894Y0022545D01*
X0051550Y0022068D01*
X0052272Y0021700D01*
X0053043Y0021450D01*
X0053843Y0021323D01*
X0054249Y0021323D01*
X0054654Y0021323D01*
X0055455Y0021450D01*
X0056225Y0021700D01*
X0056948Y0022068D01*
X0057603Y0022545D01*
X0058177Y0023118D01*
X0058653Y0023773D01*
X0059021Y0024496D01*
X0059099Y0024736D01*
X0059099Y0022494D01*
X0060271Y0021323D01*
X0068227Y0021323D01*
X0069398Y0022494D01*
X0069398Y0027379D01*
X0073760Y0031742D01*
X0074217Y0032844D01*
X0074217Y0039316D01*
X0075583Y0040681D01*
X0076217Y0042213D01*
X0076852Y0040681D01*
X0078300Y0039233D01*
X0080193Y0038449D01*
X0082242Y0038449D01*
X0084134Y0039233D01*
X0085583Y0040681D01*
X0086367Y0042574D01*
X0086367Y0050922D01*
X0085583Y0052815D01*
X0084217Y0054180D01*
X0084217Y0069592D01*
X0083760Y0070695D01*
X0082917Y0071539D01*
X0082917Y0071539D01*
X0081575Y0072880D01*
X0081575Y0074632D01*
X0080813Y0076470D01*
X0079407Y0077877D01*
X0077569Y0078638D01*
X0075817Y0078638D01*
X0061094Y0093361D01*
X0063058Y0094175D01*
X0064617Y0095734D01*
X0065461Y0097771D01*
X0065461Y0099977D01*
X0064617Y0102014D01*
X0063058Y0103573D01*
X0062323Y0103878D01*
X0062823Y0104133D01*
X0063529Y0104646D01*
X0064146Y0105263D01*
X0064659Y0105969D01*
X0065055Y0106746D01*
X0065325Y0107576D01*
X0065461Y0108438D01*
X0065461Y0108874D01*
X0065461Y0109310D01*
X0065325Y0110172D01*
X0065055Y0111002D01*
X0064659Y0111779D01*
X0064146Y0112485D01*
X0063529Y0113102D01*
X0062823Y0113615D01*
X0062323Y0113870D01*
X0063058Y0114175D01*
X0063775Y0112857D02*
X0078975Y0112857D01*
X0077653Y0110858D02*
X0065102Y0110858D01*
X0065461Y0108874D02*
X0056375Y0108874D01*
X0056375Y0108874D01*
X0065461Y0108874D01*
X0065461Y0108860D02*
X0077288Y0108860D01*
X0077665Y0106861D02*
X0065092Y0106861D01*
X0063746Y0104863D02*
X0079003Y0104863D01*
X0078982Y0102864D02*
X0063767Y0102864D01*
X0065093Y0100866D02*
X0077656Y0100866D01*
X0077288Y0098867D02*
X0065461Y0098867D01*
X0065087Y0096869D02*
X0077662Y0096869D01*
X0078996Y0094870D02*
X0063753Y0094870D01*
X0061584Y0092872D02*
X0083375Y0092872D01*
X0083375Y0090873D02*
X0063582Y0090873D01*
X0065581Y0088874D02*
X0083375Y0088874D01*
X0083375Y0086876D02*
X0067579Y0086876D01*
X0069578Y0084877D02*
X0083375Y0084877D01*
X0083954Y0082879D02*
X0071576Y0082879D01*
X0073575Y0080880D02*
X0085952Y0080880D01*
X0087951Y0078882D02*
X0075573Y0078882D01*
X0080400Y0076883D02*
X0089949Y0076883D01*
X0091948Y0074885D02*
X0081470Y0074885D01*
X0081575Y0072886D02*
X0093946Y0072886D01*
X0095945Y0070888D02*
X0083567Y0070888D01*
X0084217Y0068889D02*
X0097943Y0068889D01*
X0099942Y0066891D02*
X0084217Y0066891D01*
X0084217Y0064892D02*
X0101940Y0064892D01*
X0103939Y0062894D02*
X0084217Y0062894D01*
X0084217Y0060895D02*
X0104083Y0060895D01*
X0104083Y0058897D02*
X0084217Y0058897D01*
X0084217Y0056898D02*
X0104083Y0056898D01*
X0104038Y0054900D02*
X0084217Y0054900D01*
X0085496Y0052901D02*
X0104038Y0052901D01*
X0104038Y0050903D02*
X0086367Y0050903D01*
X0086367Y0048904D02*
X0104038Y0048904D01*
X0104038Y0046906D02*
X0086367Y0046906D01*
X0086367Y0044907D02*
X0104038Y0044907D01*
X0104038Y0042909D02*
X0086367Y0042909D01*
X0085678Y0040910D02*
X0102702Y0040910D01*
X0102038Y0038912D02*
X0083359Y0038912D01*
X0079075Y0038912D02*
X0074217Y0038912D01*
X0074217Y0036913D02*
X0102205Y0036913D01*
X0102469Y0034915D02*
X0074217Y0034915D01*
X0074217Y0032916D02*
X0102469Y0032916D01*
X0102469Y0030918D02*
X0072937Y0030918D01*
X0070938Y0028919D02*
X0082444Y0028919D01*
X0082212Y0028751D02*
X0082849Y0029213D01*
X0083550Y0029571D01*
X0084298Y0029814D01*
X0085076Y0029937D01*
X0085469Y0029937D01*
X0085469Y0024937D01*
X0080469Y0024937D01*
X0080469Y0024543D01*
X0080592Y0023766D01*
X0080835Y0023018D01*
X0081193Y0022316D01*
X0081655Y0021680D01*
X0082212Y0021123D01*
X0082849Y0020661D01*
X0083550Y0020303D01*
X0084298Y0020060D01*
X0085076Y0019937D01*
X0085469Y0019937D01*
X0085469Y0024937D01*
X0085469Y0024937D01*
X0080469Y0024937D01*
X0080469Y0025331D01*
X0080592Y0026108D01*
X0080835Y0026856D01*
X0081193Y0027558D01*
X0081655Y0028194D01*
X0082212Y0028751D01*
X0080868Y0026921D02*
X0069398Y0026921D01*
X0069398Y0024922D02*
X0080469Y0024922D01*
X0080883Y0022924D02*
X0069398Y0022924D01*
X0064249Y0026472D02*
X0071217Y0033441D01*
X0071217Y0046748D01*
X0066757Y0040910D02*
X0065678Y0040910D01*
X0063359Y0038912D02*
X0068217Y0038912D01*
X0068217Y0036913D02*
X0044091Y0036913D01*
X0044091Y0034915D02*
X0068217Y0034915D01*
X0066450Y0032916D02*
X0044091Y0032916D01*
X0044091Y0030918D02*
X0051630Y0030918D01*
X0054249Y0030918D02*
X0054249Y0030918D01*
X0054249Y0028919D02*
X0054249Y0028919D01*
X0054249Y0026921D02*
X0054249Y0026921D01*
X0054249Y0026472D02*
X0054249Y0026472D01*
X0054249Y0021323D01*
X0054249Y0026472D01*
X0054249Y0026472D01*
X0049099Y0026472D01*
X0054249Y0026472D01*
X0054249Y0024922D02*
X0054249Y0024922D01*
X0054249Y0022924D02*
X0054249Y0022924D01*
X0050515Y0022924D02*
X0044091Y0022924D01*
X0044091Y0024922D02*
X0049338Y0024922D01*
X0049106Y0026921D02*
X0044091Y0026921D01*
X0044091Y0028919D02*
X0049716Y0028919D01*
X0056867Y0030918D02*
X0059566Y0030918D01*
X0059099Y0028919D02*
X0058782Y0028919D01*
X0059099Y0022924D02*
X0057982Y0022924D01*
X0044091Y0020925D02*
X0082485Y0020925D01*
X0085469Y0020925D02*
X0085469Y0020925D01*
X0085469Y0019937D02*
X0085863Y0019937D01*
X0086640Y0020060D01*
X0087388Y0020303D01*
X0088090Y0020661D01*
X0088726Y0021123D01*
X0089283Y0021680D01*
X0089746Y0022316D01*
X0090103Y0023018D01*
X0090346Y0023766D01*
X0090469Y0024543D01*
X0090469Y0024937D01*
X0085469Y0024937D01*
X0085469Y0024937D01*
X0085469Y0024937D01*
X0085469Y0019937D01*
X0085469Y0022924D02*
X0085469Y0022924D01*
X0085469Y0024922D02*
X0085469Y0024922D01*
X0085469Y0024937D02*
X0085469Y0024937D01*
X0085469Y0029937D01*
X0085863Y0029937D01*
X0086640Y0029814D01*
X0087388Y0029571D01*
X0088090Y0029213D01*
X0088726Y0028751D01*
X0089283Y0028194D01*
X0089746Y0027558D01*
X0090103Y0026856D01*
X0090346Y0026108D01*
X0090469Y0025331D01*
X0090469Y0024937D01*
X0085469Y0024937D01*
X0085469Y0026921D02*
X0085469Y0026921D01*
X0085469Y0028919D02*
X0085469Y0028919D01*
X0088495Y0028919D02*
X0102380Y0028919D01*
X0100879Y0026921D02*
X0090070Y0026921D01*
X0090469Y0024922D02*
X0100469Y0024922D01*
X0100891Y0022924D02*
X0090055Y0022924D01*
X0088454Y0020925D02*
X0102410Y0020925D01*
X0105469Y0024937D02*
X0105469Y0036743D01*
X0107038Y0038311D01*
X0107038Y0056072D01*
X0107083Y0056118D01*
X0107083Y0063992D01*
X0086375Y0084701D01*
X0086375Y0098874D01*
X0089375Y0092872D02*
X0111468Y0092872D01*
X0111468Y0090873D02*
X0089375Y0090873D01*
X0089375Y0088874D02*
X0111468Y0088874D01*
X0111360Y0086876D02*
X0089375Y0086876D01*
X0090441Y0084877D02*
X0109361Y0084877D01*
X0105000Y0082879D02*
X0092439Y0082879D01*
X0094438Y0080880D02*
X0102690Y0080880D01*
X0102038Y0078882D02*
X0096436Y0078882D01*
X0098435Y0076883D02*
X0102217Y0076883D01*
X0103393Y0074885D02*
X0100433Y0074885D01*
X0102432Y0072886D02*
X0123099Y0072886D01*
X0123099Y0070888D02*
X0104430Y0070888D01*
X0106429Y0068889D02*
X0121703Y0068889D01*
X0121099Y0066891D02*
X0108427Y0066891D01*
X0109958Y0064892D02*
X0121327Y0064892D01*
X0122571Y0062894D02*
X0110083Y0062894D01*
X0110083Y0060895D02*
X0133768Y0060895D01*
X0133768Y0058897D02*
X0110083Y0058897D01*
X0110083Y0056898D02*
X0131849Y0056898D01*
X0129851Y0054900D02*
X0110038Y0054900D01*
X0110038Y0052901D02*
X0127852Y0052901D01*
X0123025Y0050903D02*
X0110038Y0050903D01*
X0110038Y0048904D02*
X0121515Y0048904D01*
X0121099Y0046906D02*
X0110038Y0046906D01*
X0110038Y0044907D02*
X0121515Y0044907D01*
X0123025Y0042909D02*
X0110038Y0042909D01*
X0111373Y0040910D02*
X0123768Y0040910D01*
X0123768Y0038912D02*
X0112038Y0038912D01*
X0111871Y0036913D02*
X0124565Y0036913D01*
X0126564Y0034915D02*
X0110712Y0034915D01*
X0108469Y0032916D02*
X0128562Y0032916D01*
X0130561Y0030918D02*
X0108469Y0030918D01*
X0108558Y0028919D02*
X0117759Y0028919D01*
X0117527Y0028751D02*
X0116970Y0028194D01*
X0116508Y0027558D01*
X0116150Y0026856D01*
X0115907Y0026108D01*
X0115784Y0025331D01*
X0115784Y0024937D01*
X0115784Y0024543D01*
X0115907Y0023766D01*
X0116150Y0023018D01*
X0116508Y0022316D01*
X0116970Y0021680D01*
X0117527Y0021123D01*
X0118164Y0020661D01*
X0118865Y0020303D01*
X0119613Y0020060D01*
X0120391Y0019937D01*
X0120784Y0019937D01*
X0120784Y0024937D01*
X0115784Y0024937D01*
X0120784Y0024937D01*
X0120784Y0024937D01*
X0120784Y0024937D01*
X0120784Y0029937D01*
X0120391Y0029937D01*
X0119613Y0029814D01*
X0118865Y0029571D01*
X0118164Y0029213D01*
X0117527Y0028751D01*
X0116183Y0026921D02*
X0110059Y0026921D01*
X0110469Y0024922D02*
X0115784Y0024922D01*
X0116198Y0022924D02*
X0110047Y0022924D01*
X0108528Y0020925D02*
X0117800Y0020925D01*
X0120784Y0020925D02*
X0120784Y0020925D01*
X0120784Y0019937D02*
X0121178Y0019937D01*
X0121955Y0020060D01*
X0122703Y0020303D01*
X0123405Y0020661D01*
X0124041Y0021123D01*
X0124598Y0021680D01*
X0125060Y0022316D01*
X0125418Y0023018D01*
X0125661Y0023766D01*
X0125784Y0024543D01*
X0125784Y0024937D01*
X0120784Y0024937D01*
X0120784Y0024937D01*
X0120784Y0019937D01*
X0120784Y0022924D02*
X0120784Y0022924D01*
X0120784Y0024922D02*
X0120784Y0024922D01*
X0120784Y0024937D02*
X0120784Y0024937D01*
X0120784Y0029937D01*
X0121178Y0029937D01*
X0121955Y0029814D01*
X0122703Y0029571D01*
X0123405Y0029213D01*
X0124041Y0028751D01*
X0124598Y0028194D01*
X0125060Y0027558D01*
X0125418Y0026856D01*
X0125661Y0026108D01*
X0125784Y0025331D01*
X0125784Y0024937D01*
X0120784Y0024937D01*
X0120784Y0026921D02*
X0120784Y0026921D01*
X0120784Y0028919D02*
X0120784Y0028919D01*
X0123810Y0028919D02*
X0132559Y0028919D01*
X0134558Y0026921D02*
X0125385Y0026921D01*
X0125784Y0024922D02*
X0135784Y0024922D01*
X0136206Y0022924D02*
X0125370Y0022924D01*
X0123769Y0020925D02*
X0137725Y0020925D01*
X0139046Y0030918D02*
X0201572Y0030918D01*
X0201572Y0032916D02*
X0137048Y0032916D01*
X0135049Y0034915D02*
X0201572Y0034915D01*
X0201572Y0036913D02*
X0133051Y0036913D01*
X0131052Y0038912D02*
X0201572Y0038912D01*
X0201572Y0040910D02*
X0129768Y0040910D01*
X0129768Y0042909D02*
X0163025Y0042909D01*
X0161515Y0044907D02*
X0130683Y0044907D01*
X0131099Y0046906D02*
X0161099Y0046906D01*
X0161515Y0048904D02*
X0132340Y0048904D01*
X0134339Y0050903D02*
X0163025Y0050903D01*
X0163099Y0052901D02*
X0136337Y0052901D01*
X0138336Y0054900D02*
X0163099Y0054900D01*
X0163099Y0056898D02*
X0139735Y0056898D01*
X0139768Y0058897D02*
X0163099Y0058897D01*
X0163099Y0060895D02*
X0139768Y0060895D01*
X0139768Y0062894D02*
X0162571Y0062894D01*
X0161327Y0064892D02*
X0139768Y0064892D01*
X0139768Y0066891D02*
X0161099Y0066891D01*
X0161703Y0068889D02*
X0139768Y0068889D01*
X0139768Y0070888D02*
X0163779Y0070888D01*
X0166099Y0066437D02*
X0167717Y0066437D01*
X0190784Y0089504D01*
X0190784Y0110213D01*
X0172123Y0128874D01*
X0086375Y0128874D01*
X0093731Y0124848D02*
X0171906Y0124848D01*
X0173905Y0122849D02*
X0093782Y0122849D01*
X0093790Y0132842D02*
X0188154Y0132842D01*
X0188291Y0132942D02*
X0187686Y0132502D01*
X0187157Y0131972D01*
X0186716Y0131367D01*
X0186377Y0130700D01*
X0186145Y0129988D01*
X0186028Y0129248D01*
X0186028Y0128874D01*
X0186028Y0128500D01*
X0186145Y0127760D01*
X0186377Y0127048D01*
X0186716Y0126381D01*
X0187157Y0125776D01*
X0187686Y0125246D01*
X0188291Y0124806D01*
X0188958Y0124467D01*
X0189670Y0124235D01*
X0190410Y0124118D01*
X0190784Y0124118D01*
X0190784Y0128874D01*
X0186028Y0128874D01*
X0190784Y0128874D01*
X0190784Y0128874D01*
X0190784Y0128874D01*
X0190784Y0133630D01*
X0190410Y0133630D01*
X0189670Y0133513D01*
X0188958Y0133281D01*
X0188291Y0132942D01*
X0190784Y0132842D02*
X0190784Y0132842D01*
X0190784Y0133630D02*
X0190784Y0128874D01*
X0190784Y0128874D01*
X0190784Y0124118D01*
X0191158Y0124118D01*
X0191898Y0124235D01*
X0192610Y0124467D01*
X0193277Y0124806D01*
X0193882Y0125246D01*
X0194412Y0125776D01*
X0194852Y0126381D01*
X0195192Y0127048D01*
X0195423Y0127760D01*
X0195540Y0128500D01*
X0195540Y0128874D01*
X0195540Y0129248D01*
X0195423Y0129988D01*
X0195192Y0130700D01*
X0194852Y0131367D01*
X0194412Y0131972D01*
X0193882Y0132502D01*
X0193277Y0132942D01*
X0192610Y0133281D01*
X0191898Y0133513D01*
X0191158Y0133630D01*
X0190784Y0133630D01*
X0193414Y0132842D02*
X0201572Y0132842D01*
X0201572Y0134840D02*
X0093724Y0134840D01*
X0095085Y0136839D02*
X0201572Y0136839D01*
X0201572Y0138837D02*
X0095461Y0138837D01*
X0095461Y0138874D02*
X0086375Y0138874D01*
X0095461Y0138874D01*
X0095109Y0140836D02*
X0201572Y0140836D01*
X0201572Y0142834D02*
X0133405Y0142834D01*
X0133523Y0142866D02*
X0137514Y0145170D01*
X0140772Y0148428D01*
X0143076Y0152418D01*
X0144268Y0156869D01*
X0144268Y0161477D01*
X0143076Y0165928D01*
X0140772Y0169918D01*
X0137514Y0173177D01*
X0133523Y0175481D01*
X0129072Y0176673D01*
X0124464Y0176673D01*
X0120014Y0175481D01*
X0116023Y0173177D01*
X0112765Y0169918D01*
X0110461Y0165928D01*
X0109268Y0161477D01*
X0109268Y0156869D01*
X0110461Y0152418D01*
X0112765Y0148428D01*
X0116023Y0145170D01*
X0120014Y0142866D01*
X0124464Y0141673D01*
X0129072Y0141673D01*
X0133523Y0142866D01*
X0136930Y0144833D02*
X0201572Y0144833D01*
X0201572Y0146831D02*
X0139175Y0146831D01*
X0141004Y0148830D02*
X0201572Y0148830D01*
X0201572Y0150828D02*
X0142158Y0150828D01*
X0143185Y0152827D02*
X0201572Y0152827D01*
X0201572Y0154825D02*
X0143721Y0154825D01*
X0144256Y0156824D02*
X0201572Y0156824D01*
X0201572Y0158822D02*
X0144268Y0158822D01*
X0144268Y0160821D02*
X0201572Y0160821D01*
X0201572Y0162819D02*
X0143909Y0162819D01*
X0143373Y0164818D02*
X0201572Y0164818D01*
X0201572Y0166816D02*
X0142563Y0166816D01*
X0141409Y0168815D02*
X0201572Y0168815D01*
X0201572Y0170813D02*
X0139877Y0170813D01*
X0137878Y0172812D02*
X0201572Y0172812D01*
X0201572Y0174810D02*
X0134684Y0174810D01*
X0118853Y0174810D02*
X0044091Y0174810D01*
X0044091Y0172812D02*
X0115658Y0172812D01*
X0113660Y0170813D02*
X0044091Y0170813D01*
X0044091Y0168815D02*
X0112128Y0168815D01*
X0110974Y0166816D02*
X0044091Y0166816D01*
X0044091Y0164818D02*
X0110164Y0164818D01*
X0109628Y0162819D02*
X0093812Y0162819D01*
X0095114Y0160821D02*
X0109268Y0160821D01*
X0109268Y0158822D02*
X0095461Y0158822D01*
X0095080Y0156824D02*
X0109281Y0156824D01*
X0109816Y0154825D02*
X0093709Y0154825D01*
X0093805Y0152827D02*
X0110352Y0152827D01*
X0111379Y0150828D02*
X0095108Y0150828D01*
X0095461Y0148830D02*
X0112533Y0148830D01*
X0114362Y0146831D02*
X0095072Y0146831D01*
X0093716Y0144833D02*
X0116607Y0144833D01*
X0120131Y0142834D02*
X0093797Y0142834D01*
X0086375Y0138874D02*
X0086375Y0138874D01*
X0077288Y0138874D01*
X0086375Y0138874D01*
X0086375Y0138874D01*
X0079026Y0134840D02*
X0063724Y0134840D01*
X0063790Y0132842D02*
X0078960Y0132842D01*
X0077647Y0130843D02*
X0065107Y0130843D01*
X0065461Y0128874D02*
X0056375Y0128874D01*
X0056375Y0128874D01*
X0065461Y0128874D01*
X0065461Y0128845D02*
X0077288Y0128845D01*
X0077671Y0126846D02*
X0065088Y0126846D01*
X0063731Y0124848D02*
X0079018Y0124848D01*
X0078967Y0122849D02*
X0063782Y0122849D01*
X0065099Y0120851D02*
X0077650Y0120851D01*
X0077288Y0118852D02*
X0065461Y0118852D01*
X0065081Y0116854D02*
X0077668Y0116854D01*
X0086375Y0108874D02*
X0105509Y0108874D01*
X0116768Y0097614D01*
X0116768Y0090173D01*
X0116768Y0088042D01*
X0107038Y0078311D01*
X0110683Y0074885D02*
X0123099Y0074885D01*
X0123099Y0076883D02*
X0111858Y0076883D01*
X0112038Y0078882D02*
X0123099Y0078882D01*
X0123099Y0080880D02*
X0113850Y0080880D01*
X0120269Y0082879D02*
X0123099Y0082879D01*
X0121858Y0084877D02*
X0121678Y0084877D01*
X0126099Y0089504D02*
X0126768Y0090173D01*
X0126099Y0089504D02*
X0126099Y0066437D01*
X0129627Y0062894D02*
X0133768Y0062894D01*
X0133768Y0064892D02*
X0130871Y0064892D01*
X0131099Y0066891D02*
X0133768Y0066891D01*
X0133768Y0068889D02*
X0130495Y0068889D01*
X0129099Y0070888D02*
X0133768Y0070888D01*
X0133768Y0072886D02*
X0129099Y0072886D01*
X0129099Y0074885D02*
X0133768Y0074885D01*
X0133768Y0076883D02*
X0129099Y0076883D01*
X0129099Y0078882D02*
X0133768Y0078882D01*
X0133768Y0080880D02*
X0129099Y0080880D01*
X0130269Y0082879D02*
X0133267Y0082879D01*
X0131858Y0084877D02*
X0131678Y0084877D01*
X0139768Y0080880D02*
X0177918Y0080880D01*
X0175919Y0078882D02*
X0139768Y0078882D01*
X0139768Y0076883D02*
X0173921Y0076883D01*
X0171922Y0074885D02*
X0139768Y0074885D01*
X0139768Y0072886D02*
X0169924Y0072886D01*
X0174412Y0068889D02*
X0201572Y0068889D01*
X0201572Y0066891D02*
X0172414Y0066891D01*
X0170871Y0064892D02*
X0201572Y0064892D01*
X0201572Y0062894D02*
X0169627Y0062894D01*
X0169099Y0060895D02*
X0201572Y0060895D01*
X0201572Y0058897D02*
X0169099Y0058897D01*
X0169099Y0056898D02*
X0201572Y0056898D01*
X0201572Y0054900D02*
X0169099Y0054900D01*
X0169099Y0052901D02*
X0201572Y0052901D01*
X0201572Y0050903D02*
X0169173Y0050903D01*
X0170683Y0048904D02*
X0201572Y0048904D01*
X0201572Y0046906D02*
X0171099Y0046906D01*
X0170683Y0044907D02*
X0201572Y0044907D01*
X0201572Y0042909D02*
X0169173Y0042909D01*
X0166099Y0046906D02*
X0166099Y0066437D01*
X0176411Y0070888D02*
X0201572Y0070888D01*
X0201572Y0072886D02*
X0178409Y0072886D01*
X0180408Y0074885D02*
X0201572Y0074885D01*
X0201572Y0076883D02*
X0182406Y0076883D01*
X0184405Y0078882D02*
X0201572Y0078882D01*
X0201572Y0080880D02*
X0186403Y0080880D01*
X0188402Y0082879D02*
X0201572Y0082879D01*
X0201572Y0084877D02*
X0192043Y0084877D01*
X0194843Y0086876D02*
X0201572Y0086876D01*
X0201572Y0088874D02*
X0195540Y0088874D01*
X0195365Y0090873D02*
X0201572Y0090873D01*
X0201572Y0092872D02*
X0194142Y0092872D01*
X0193784Y0094870D02*
X0201572Y0094870D01*
X0201572Y0096869D02*
X0193784Y0096869D01*
X0193784Y0098867D02*
X0201572Y0098867D01*
X0201572Y0100866D02*
X0193784Y0100866D01*
X0193784Y0102864D02*
X0201572Y0102864D01*
X0201572Y0104863D02*
X0193784Y0104863D01*
X0193784Y0106861D02*
X0201572Y0106861D01*
X0201572Y0108860D02*
X0193784Y0108860D01*
X0193764Y0110858D02*
X0201572Y0110858D01*
X0201572Y0112857D02*
X0192383Y0112857D01*
X0190384Y0114855D02*
X0201572Y0114855D01*
X0201572Y0116854D02*
X0188386Y0116854D01*
X0186387Y0118852D02*
X0201572Y0118852D01*
X0201572Y0120851D02*
X0184389Y0120851D01*
X0182390Y0122849D02*
X0201572Y0122849D01*
X0201572Y0124848D02*
X0193334Y0124848D01*
X0190784Y0124848D02*
X0190784Y0124848D01*
X0190784Y0126846D02*
X0190784Y0126846D01*
X0190784Y0128845D02*
X0190784Y0128845D01*
X0190784Y0128874D02*
X0190784Y0128874D01*
X0195540Y0128874D01*
X0190784Y0128874D01*
X0190784Y0130843D02*
X0190784Y0130843D01*
X0186450Y0130843D02*
X0174396Y0130843D01*
X0176395Y0128845D02*
X0186028Y0128845D01*
X0186480Y0126846D02*
X0178393Y0126846D01*
X0180392Y0124848D02*
X0188235Y0124848D01*
X0195089Y0126846D02*
X0201572Y0126846D01*
X0201572Y0128845D02*
X0195540Y0128845D01*
X0195118Y0130843D02*
X0201572Y0130843D01*
X0183897Y0112857D02*
X0121517Y0112857D01*
X0123515Y0110858D02*
X0185896Y0110858D01*
X0187784Y0108860D02*
X0125514Y0108860D01*
X0127512Y0106861D02*
X0187784Y0106861D01*
X0187784Y0104863D02*
X0129511Y0104863D01*
X0131509Y0102864D02*
X0187784Y0102864D01*
X0187784Y0100866D02*
X0133508Y0100866D01*
X0135506Y0098867D02*
X0187784Y0098867D01*
X0187784Y0096869D02*
X0140868Y0096869D01*
X0141926Y0094870D02*
X0187784Y0094870D01*
X0187426Y0092872D02*
X0142068Y0092872D01*
X0142068Y0090873D02*
X0186203Y0090873D01*
X0185912Y0088874D02*
X0142068Y0088874D01*
X0142068Y0086876D02*
X0183914Y0086876D01*
X0181915Y0084877D02*
X0141678Y0084877D01*
X0140269Y0082879D02*
X0179916Y0082879D01*
X0181899Y0114855D02*
X0119518Y0114855D01*
X0117520Y0116854D02*
X0179900Y0116854D01*
X0177902Y0118852D02*
X0115521Y0118852D01*
X0113523Y0120851D02*
X0175903Y0120851D01*
X0201572Y0176809D02*
X0044091Y0176809D01*
X0044091Y0162819D02*
X0048937Y0162819D01*
X0047638Y0160821D02*
X0044091Y0160821D01*
X0044091Y0158822D02*
X0047288Y0158822D01*
X0047681Y0156824D02*
X0044091Y0156824D01*
X0044091Y0154825D02*
X0049041Y0154825D01*
X0048945Y0152827D02*
X0044091Y0152827D01*
X0044091Y0150828D02*
X0047638Y0150828D01*
X0047288Y0148874D02*
X0056375Y0148874D01*
X0047288Y0148874D01*
X0047288Y0148830D02*
X0044091Y0148830D01*
X0044091Y0146831D02*
X0047666Y0146831D01*
X0049033Y0144833D02*
X0044091Y0144833D01*
X0044091Y0142834D02*
X0048952Y0142834D01*
X0047644Y0140836D02*
X0044091Y0140836D01*
X0044091Y0138837D02*
X0047288Y0138837D01*
X0047674Y0136839D02*
X0044091Y0136839D01*
X0044091Y0134840D02*
X0049026Y0134840D01*
X0048960Y0132842D02*
X0044091Y0132842D01*
X0044091Y0130843D02*
X0047643Y0130843D01*
X0047288Y0128874D02*
X0056375Y0128874D01*
X0047288Y0128874D01*
X0047288Y0128845D02*
X0044091Y0128845D01*
X0044091Y0126846D02*
X0047662Y0126846D01*
X0049018Y0124848D02*
X0044091Y0124848D01*
X0044091Y0122849D02*
X0048967Y0122849D01*
X0047650Y0120851D02*
X0044091Y0120851D01*
X0044091Y0118852D02*
X0047288Y0118852D01*
X0047668Y0116854D02*
X0044091Y0116854D01*
X0044091Y0114855D02*
X0049011Y0114855D01*
X0048975Y0112857D02*
X0044091Y0112857D01*
X0044091Y0110858D02*
X0047647Y0110858D01*
X0047288Y0108874D02*
X0056375Y0108874D01*
X0047288Y0108874D01*
X0047288Y0108860D02*
X0044091Y0108860D01*
X0044091Y0106861D02*
X0047657Y0106861D01*
X0049003Y0104863D02*
X0044091Y0104863D01*
X0044091Y0102864D02*
X0048982Y0102864D01*
X0047656Y0100866D02*
X0044091Y0100866D01*
X0044091Y0098867D02*
X0047288Y0098867D01*
X0047662Y0096869D02*
X0044091Y0096869D01*
X0044091Y0094870D02*
X0048996Y0094870D01*
X0053528Y0092872D02*
X0044091Y0092872D01*
X0044091Y0090873D02*
X0055097Y0090873D01*
X0057095Y0088874D02*
X0044091Y0088874D01*
X0044091Y0086876D02*
X0059094Y0086876D01*
X0061092Y0084877D02*
X0044091Y0084877D01*
X0044091Y0082879D02*
X0063091Y0082879D01*
X0065089Y0080880D02*
X0044091Y0080880D01*
X0044091Y0078882D02*
X0067088Y0078882D01*
X0069086Y0076883D02*
X0060397Y0076883D01*
X0060388Y0076895D02*
X0059832Y0077452D01*
X0059195Y0077914D01*
X0058494Y0078271D01*
X0057745Y0078515D01*
X0056968Y0078638D01*
X0056575Y0078638D01*
X0056575Y0073638D01*
X0061575Y0073638D01*
X0061575Y0074031D01*
X0061452Y0074809D01*
X0061208Y0075557D01*
X0060851Y0076258D01*
X0060388Y0076895D01*
X0061427Y0074885D02*
X0071085Y0074885D01*
X0071575Y0072886D02*
X0061518Y0072886D01*
X0061575Y0073244D02*
X0061575Y0073638D01*
X0056575Y0073638D01*
X0056575Y0073638D01*
X0056575Y0073638D01*
X0056575Y0078638D01*
X0056181Y0078638D01*
X0055404Y0078515D01*
X0054655Y0078271D01*
X0053954Y0077914D01*
X0053317Y0077452D01*
X0052761Y0076895D01*
X0052298Y0076258D01*
X0051941Y0075557D01*
X0051698Y0074809D01*
X0051575Y0074031D01*
X0051575Y0073638D01*
X0056575Y0073638D01*
X0056575Y0068638D01*
X0056968Y0068638D01*
X0057745Y0068761D01*
X0058494Y0069004D01*
X0059195Y0069361D01*
X0059832Y0069824D01*
X0060388Y0070381D01*
X0060851Y0071017D01*
X0061208Y0071718D01*
X0061452Y0072467D01*
X0061575Y0073244D01*
X0060757Y0070888D02*
X0072302Y0070888D01*
X0074973Y0068889D02*
X0058141Y0068889D01*
X0056575Y0068889D02*
X0056575Y0068889D01*
X0056575Y0068638D02*
X0056575Y0073638D01*
X0056575Y0073638D01*
X0056575Y0073638D01*
X0051575Y0073638D01*
X0051575Y0073244D01*
X0051698Y0072467D01*
X0051941Y0071718D01*
X0052298Y0071017D01*
X0052761Y0070381D01*
X0053317Y0069824D01*
X0053954Y0069361D01*
X0054655Y0069004D01*
X0055404Y0068761D01*
X0056181Y0068638D01*
X0056575Y0068638D01*
X0055008Y0068889D02*
X0044091Y0068889D01*
X0044091Y0066891D02*
X0078217Y0066891D01*
X0078217Y0064892D02*
X0044091Y0064892D01*
X0044091Y0062894D02*
X0078217Y0062894D01*
X0078217Y0060895D02*
X0044091Y0060895D01*
X0044091Y0058897D02*
X0078217Y0058897D01*
X0078217Y0056898D02*
X0044091Y0056898D01*
X0044091Y0054900D02*
X0059837Y0054900D01*
X0056938Y0052901D02*
X0044091Y0052901D01*
X0044091Y0050903D02*
X0056068Y0050903D01*
X0056068Y0048904D02*
X0044091Y0048904D01*
X0044091Y0046906D02*
X0056068Y0046906D01*
X0056068Y0044907D02*
X0044091Y0044907D01*
X0044091Y0042909D02*
X0056068Y0042909D01*
X0056757Y0040910D02*
X0044091Y0040910D01*
X0044091Y0038912D02*
X0059075Y0038912D01*
X0065496Y0052901D02*
X0066938Y0052901D01*
X0069837Y0054900D02*
X0062597Y0054900D01*
X0072597Y0054900D02*
X0078217Y0054900D01*
X0076938Y0052901D02*
X0075496Y0052901D01*
X0081217Y0046748D02*
X0081217Y0068995D01*
X0076575Y0073638D01*
X0056375Y0093838D01*
X0056375Y0098874D01*
X0056375Y0108874D02*
X0056375Y0108874D01*
X0056375Y0128874D02*
X0056375Y0128874D01*
X0065075Y0136839D02*
X0077664Y0136839D01*
X0077288Y0138837D02*
X0065461Y0138837D01*
X0065105Y0140836D02*
X0077640Y0140836D01*
X0078952Y0142834D02*
X0063797Y0142834D01*
X0063716Y0144833D02*
X0079033Y0144833D01*
X0077677Y0146831D02*
X0065083Y0146831D01*
X0065461Y0148830D02*
X0077288Y0148830D01*
X0077641Y0150828D02*
X0065112Y0150828D01*
X0063805Y0152827D02*
X0078945Y0152827D01*
X0079041Y0154825D02*
X0063709Y0154825D01*
X0065069Y0156824D02*
X0077669Y0156824D01*
X0077288Y0158822D02*
X0065461Y0158822D01*
X0065112Y0160821D02*
X0077635Y0160821D01*
X0077288Y0158874D02*
X0086375Y0158874D01*
X0077288Y0158874D01*
X0078937Y0162819D02*
X0063812Y0162819D01*
X0056375Y0148874D02*
X0056375Y0148874D01*
X0086375Y0158874D02*
X0086375Y0158874D01*
X0086375Y0160821D02*
X0086375Y0160821D01*
X0086375Y0162819D02*
X0086375Y0162819D01*
X0093746Y0104863D02*
X0105277Y0104863D01*
X0107276Y0102864D02*
X0093767Y0102864D01*
X0095093Y0100866D02*
X0109274Y0100866D01*
X0111273Y0098867D02*
X0095461Y0098867D01*
X0095087Y0096869D02*
X0112668Y0096869D01*
X0111610Y0094870D02*
X0093753Y0094870D01*
X0056575Y0076883D02*
X0056575Y0076883D01*
X0056575Y0074885D02*
X0056575Y0074885D01*
X0056575Y0072886D02*
X0056575Y0072886D01*
X0056575Y0070888D02*
X0056575Y0070888D01*
X0052392Y0070888D02*
X0044091Y0070888D01*
X0044091Y0072886D02*
X0051631Y0072886D01*
X0051723Y0074885D02*
X0044091Y0074885D01*
X0044091Y0076883D02*
X0052752Y0076883D01*
X0075678Y0040910D02*
X0076757Y0040910D01*
M02*
