G75*
%MOIN*%
%OFA0B0*%
%FSLAX25Y25*%
%IPPOS*%
%LPD*%
%AMOC8*
5,1,8,0,0,1.08239X$1,22.5*
%
%ADD10C,0.07887*%
%ADD11C,0.06800*%
%ADD12C,0.06312*%
%ADD13R,0.07099X0.07099*%
%ADD14C,0.07099*%
%ADD15C,0.07099*%
%ADD16C,0.07400*%
%ADD17C,0.13800*%
D10*
X0052831Y0098874D02*
X0059918Y0098874D01*
X0059918Y0108874D02*
X0052831Y0108874D01*
X0052831Y0118874D02*
X0059918Y0118874D01*
X0059918Y0128874D02*
X0052831Y0128874D01*
X0052831Y0138874D02*
X0059918Y0138874D01*
X0059918Y0148874D02*
X0052831Y0148874D01*
X0052831Y0158874D02*
X0059918Y0158874D01*
X0082831Y0158874D02*
X0089918Y0158874D01*
X0089918Y0148874D02*
X0082831Y0148874D01*
X0082831Y0138874D02*
X0089918Y0138874D01*
X0089918Y0128874D02*
X0082831Y0128874D01*
X0082831Y0118874D02*
X0089918Y0118874D01*
X0089918Y0108874D02*
X0082831Y0108874D01*
X0082831Y0098874D02*
X0089918Y0098874D01*
D11*
X0107038Y0078311D03*
X0126099Y0066437D03*
X0126099Y0046906D03*
X0107038Y0038311D03*
X0105469Y0024937D03*
X0120784Y0024937D03*
X0140784Y0024937D03*
X0166099Y0046906D03*
X0166099Y0066437D03*
X0085469Y0024937D03*
X0076575Y0073638D03*
X0056575Y0073638D03*
D12*
X0190784Y0089504D03*
X0190784Y0128874D03*
D13*
X0064249Y0026472D03*
D14*
X0054249Y0026472D03*
D15*
X0061217Y0043598D02*
X0061217Y0049898D01*
X0071217Y0049898D02*
X0071217Y0043598D01*
X0081217Y0043598D02*
X0081217Y0049898D01*
D16*
X0116768Y0086873D02*
X0116768Y0093473D01*
X0126768Y0093473D02*
X0126768Y0086873D01*
X0136768Y0086873D02*
X0136768Y0093473D01*
D17*
X0126768Y0159173D03*
M02*
