%
M48
M72
T01C0.02756
T02C0.03150
T03C0.04400
T04C0.13000
%
T01
X56375Y118874
X190784Y128874
X190784Y89504
T02
X54249Y26472
X64249Y26472
X61217Y46748
X71217Y46748
X81217Y46748
X85469Y24937
X105469Y24937
X107038Y38311
X120784Y24937
X140784Y24937
X126099Y46906
X126099Y66437
X107038Y78311
X86375Y98874
X86375Y108874
X86375Y118874
X86375Y128874
X86375Y138874
X86375Y148874
X86375Y158874
X56375Y158874
X56375Y148874
X56375Y138874
X56375Y128874
X56375Y108874
X56375Y98874
X56575Y73638
X76575Y73638
X166099Y66437
X166099Y46906
T03
X136768Y90173
X126768Y90173
X116768Y90173
T04
X126768Y159173
M30
