G75*
%MOIN*%
%OFA0B0*%
%FSLAX25Y25*%
%IPPOS*%
%LPD*%
%AMOC8*
5,1,8,0,0,1.08239X$1,22.5*
%
%ADD10C,0.00600*%
%ADD11C,0.01000*%
%ADD12C,0.00400*%
%ADD13C,0.00500*%
%ADD14C,0.00200*%
%ADD15R,0.03000X0.02500*%
%ADD16R,0.05000X0.11000*%
%ADD17C,0.00700*%
D10*
X0159460Y0017882D02*
X0162396Y0017882D01*
X0164064Y0018616D02*
X0164798Y0019350D01*
X0167000Y0019350D01*
X0167000Y0020084D02*
X0167000Y0017882D01*
X0164798Y0017882D01*
X0164064Y0018616D01*
X0164798Y0020818D02*
X0166266Y0020818D01*
X0167000Y0020084D01*
X0168668Y0020084D02*
X0168668Y0018616D01*
X0169402Y0017882D01*
X0171604Y0017882D01*
X0173272Y0017882D02*
X0173272Y0022286D01*
X0171604Y0020818D02*
X0169402Y0020818D01*
X0168668Y0020084D01*
X0173272Y0019350D02*
X0175474Y0020818D01*
X0177843Y0020818D02*
X0179311Y0020818D01*
X0180045Y0020084D01*
X0180045Y0017882D01*
X0177843Y0017882D01*
X0177109Y0018616D01*
X0177843Y0019350D01*
X0180045Y0019350D01*
X0181713Y0019350D02*
X0183181Y0020818D01*
X0183915Y0020818D01*
X0185549Y0020818D02*
X0186283Y0020818D01*
X0186283Y0017882D01*
X0185549Y0017882D02*
X0187017Y0017882D01*
X0188619Y0018616D02*
X0188619Y0020818D01*
X0188619Y0018616D02*
X0189353Y0017882D01*
X0191555Y0017882D01*
X0191555Y0017148D02*
X0190821Y0016414D01*
X0190087Y0016414D01*
X0191555Y0017148D02*
X0191555Y0020818D01*
X0193957Y0020818D02*
X0195424Y0020818D01*
X0196158Y0020084D01*
X0196158Y0017882D01*
X0193957Y0017882D01*
X0193223Y0018616D01*
X0193957Y0019350D01*
X0196158Y0019350D01*
X0196292Y0025382D02*
X0199228Y0025382D01*
X0197760Y0025382D02*
X0197760Y0029786D01*
X0196292Y0028318D01*
X0194624Y0027584D02*
X0194624Y0025382D01*
X0194624Y0027584D02*
X0193890Y0028318D01*
X0191688Y0028318D01*
X0191688Y0025382D01*
X0186283Y0023020D02*
X0186283Y0022286D01*
X0184682Y0025382D02*
X0183214Y0025382D01*
X0182480Y0026116D01*
X0185416Y0029052D01*
X0185416Y0026116D01*
X0184682Y0025382D01*
X0182480Y0026116D02*
X0182480Y0029052D01*
X0183214Y0029786D01*
X0184682Y0029786D01*
X0185416Y0029052D01*
X0180812Y0027584D02*
X0177876Y0027584D01*
X0180078Y0029786D01*
X0180078Y0025382D01*
X0176208Y0025382D02*
X0173272Y0025382D01*
X0176208Y0028318D01*
X0176208Y0029052D01*
X0175474Y0029786D01*
X0174006Y0029786D01*
X0173272Y0029052D01*
X0171604Y0029052D02*
X0171604Y0028318D01*
X0170870Y0027584D01*
X0168668Y0027584D01*
X0167000Y0027584D02*
X0167000Y0026116D01*
X0166266Y0025382D01*
X0164798Y0025382D01*
X0164064Y0026116D01*
X0164064Y0029052D01*
X0164798Y0029786D01*
X0166266Y0029786D01*
X0167000Y0029052D01*
X0167000Y0027584D02*
X0165532Y0027584D01*
X0162396Y0029786D02*
X0159460Y0029786D01*
X0159460Y0025382D01*
X0162396Y0025382D01*
X0160928Y0027584D02*
X0159460Y0027584D01*
X0159460Y0022286D02*
X0162396Y0022286D01*
X0162396Y0021552D01*
X0159460Y0018616D01*
X0159460Y0017882D01*
X0168668Y0025382D02*
X0170870Y0025382D01*
X0171604Y0026116D01*
X0171604Y0026850D01*
X0170870Y0027584D01*
X0171604Y0029052D02*
X0170870Y0029786D01*
X0168668Y0029786D01*
X0168668Y0025382D01*
X0173272Y0019350D02*
X0175474Y0017882D01*
X0181713Y0017882D02*
X0181713Y0020818D01*
X0200896Y0025382D02*
X0203832Y0025382D01*
X0202364Y0025382D02*
X0202364Y0029786D01*
X0200896Y0028318D01*
X0205500Y0027584D02*
X0206968Y0028318D01*
X0207702Y0028318D01*
X0208436Y0027584D01*
X0208436Y0026116D01*
X0207702Y0025382D01*
X0206234Y0025382D01*
X0205500Y0026116D01*
X0205500Y0027584D02*
X0205500Y0029786D01*
X0208436Y0029786D01*
X0210104Y0029052D02*
X0210104Y0028318D01*
X0210838Y0027584D01*
X0213040Y0027584D01*
X0213040Y0029052D02*
X0212306Y0029786D01*
X0210838Y0029786D01*
X0210104Y0029052D01*
X0213040Y0029052D02*
X0213040Y0026116D01*
X0212306Y0025382D01*
X0210838Y0025382D01*
X0210104Y0026116D01*
X0214708Y0025382D02*
X0217643Y0028318D01*
X0217643Y0029052D01*
X0216909Y0029786D01*
X0215442Y0029786D01*
X0214708Y0029052D01*
X0214708Y0025382D02*
X0217643Y0025382D01*
X0219312Y0026116D02*
X0220045Y0025382D01*
X0221513Y0025382D01*
X0222247Y0026116D01*
X0222247Y0029052D01*
X0221513Y0029786D01*
X0220045Y0029786D01*
X0219312Y0029052D01*
X0219312Y0028318D01*
X0220045Y0027584D01*
X0222247Y0027584D01*
X0223915Y0029052D02*
X0224649Y0029786D01*
X0226117Y0029786D01*
X0226851Y0029052D01*
X0226851Y0028318D01*
X0226117Y0027584D01*
X0226851Y0026850D01*
X0226851Y0026116D01*
X0226117Y0025382D01*
X0224649Y0025382D01*
X0223915Y0026116D01*
X0225383Y0027584D02*
X0226117Y0027584D01*
X0228519Y0028318D02*
X0229987Y0029786D01*
X0229987Y0025382D01*
X0228519Y0025382D02*
X0231455Y0025382D01*
X0226117Y0020818D02*
X0225383Y0020818D01*
X0223915Y0019350D01*
X0223915Y0017882D02*
X0223915Y0020818D01*
X0222247Y0020084D02*
X0222247Y0018616D01*
X0221513Y0017882D01*
X0220045Y0017882D01*
X0219312Y0018616D01*
X0219312Y0020084D01*
X0220045Y0020818D01*
X0221513Y0020818D01*
X0222247Y0020084D01*
X0217710Y0017882D02*
X0216242Y0017882D01*
X0216976Y0017882D02*
X0216976Y0022286D01*
X0216242Y0022286D01*
X0214574Y0020818D02*
X0214574Y0017148D01*
X0213840Y0016414D01*
X0213106Y0016414D01*
X0212372Y0017882D02*
X0211638Y0018616D01*
X0211638Y0020818D01*
X0209970Y0020084D02*
X0209970Y0017882D01*
X0207768Y0017882D01*
X0207034Y0018616D01*
X0207768Y0019350D01*
X0209970Y0019350D01*
X0209970Y0020084D02*
X0209236Y0020818D01*
X0207768Y0020818D01*
X0205366Y0022286D02*
X0202430Y0022286D01*
X0203898Y0022286D02*
X0203898Y0017882D01*
X0212372Y0017882D02*
X0214574Y0017882D01*
D11*
X0049249Y0021472D02*
X0049249Y0031472D01*
X0069249Y0031472D01*
X0069249Y0021472D01*
X0049249Y0021472D01*
X0049564Y0038480D02*
X0049564Y0055016D01*
X0092871Y0055016D01*
X0092871Y0038480D01*
X0049564Y0038480D01*
X0071249Y0026472D02*
X0075249Y0026472D01*
X0073249Y0028472D02*
X0073249Y0024472D01*
X0080469Y0019937D02*
X0080469Y0029937D01*
X0110469Y0029937D01*
X0110469Y0019937D01*
X0080469Y0019937D01*
X0089469Y0024937D02*
X0094469Y0024937D01*
X0096469Y0024937D02*
X0101469Y0024937D01*
X0096469Y0021937D02*
X0096469Y0027937D01*
X0094469Y0027937D02*
X0094469Y0021937D01*
X0115784Y0019937D02*
X0115784Y0029937D01*
X0145784Y0029937D01*
X0145784Y0019937D01*
X0115784Y0019937D01*
X0124784Y0024937D02*
X0129784Y0024937D01*
X0131784Y0024937D02*
X0136784Y0024937D01*
X0131784Y0021937D02*
X0131784Y0027937D01*
X0129784Y0027937D02*
X0129784Y0021937D01*
X0132713Y0042575D02*
X0132713Y0045724D01*
X0129957Y0045724D01*
X0132713Y0045724D02*
X0132713Y0048087D01*
X0129957Y0048087D01*
X0132713Y0048087D02*
X0132713Y0051236D01*
X0159485Y0051236D01*
X0159485Y0048087D01*
X0162241Y0048087D01*
X0159485Y0048087D02*
X0159485Y0045724D01*
X0162241Y0045724D01*
X0159485Y0045724D02*
X0159485Y0042575D01*
X0132713Y0042575D01*
X0132713Y0062106D02*
X0132713Y0065256D01*
X0129957Y0065256D01*
X0129957Y0067618D02*
X0132713Y0067618D01*
X0132713Y0070768D01*
X0159485Y0070768D01*
X0159485Y0067618D01*
X0162241Y0067618D01*
X0162241Y0065256D02*
X0159485Y0065256D01*
X0159485Y0062106D01*
X0132713Y0062106D01*
X0132713Y0065256D02*
X0132713Y0067618D01*
X0111368Y0071697D02*
X0111368Y0044925D01*
X0108219Y0044925D01*
X0108219Y0042169D01*
X0105857Y0042169D02*
X0105857Y0044925D01*
X0102707Y0044925D01*
X0102707Y0071697D01*
X0105857Y0071697D01*
X0105857Y0074453D01*
X0108219Y0074453D02*
X0108219Y0071697D01*
X0111368Y0071697D01*
X0108219Y0071697D02*
X0105857Y0071697D01*
X0083375Y0090874D02*
X0083375Y0093874D01*
X0083186Y0090685D02*
X0076493Y0090685D01*
X0076491Y0090827D01*
X0076485Y0090969D01*
X0076475Y0091111D01*
X0076461Y0091253D01*
X0076444Y0091394D01*
X0076422Y0091535D01*
X0076396Y0091675D01*
X0076367Y0091814D01*
X0076334Y0091952D01*
X0076296Y0092090D01*
X0076256Y0092226D01*
X0076211Y0092361D01*
X0076162Y0092495D01*
X0076110Y0092627D01*
X0076054Y0092758D01*
X0075995Y0092887D01*
X0075932Y0093015D01*
X0075865Y0093141D01*
X0075795Y0093265D01*
X0075722Y0093386D01*
X0075645Y0093506D01*
X0075565Y0093624D01*
X0075482Y0093739D01*
X0075395Y0093852D01*
X0075306Y0093963D01*
X0075213Y0094071D01*
X0075118Y0094176D01*
X0075019Y0094279D01*
X0074918Y0094379D01*
X0074814Y0094476D01*
X0074707Y0094570D01*
X0074598Y0094661D01*
X0074486Y0094749D01*
X0074372Y0094834D01*
X0074255Y0094916D01*
X0074137Y0094994D01*
X0074016Y0095069D01*
X0073893Y0095141D01*
X0073768Y0095209D01*
X0073641Y0095274D01*
X0073513Y0095335D01*
X0073383Y0095393D01*
X0073251Y0095447D01*
X0073118Y0095497D01*
X0072984Y0095544D01*
X0072848Y0095586D01*
X0072711Y0095626D01*
X0072573Y0095661D01*
X0072434Y0095692D01*
X0072295Y0095720D01*
X0072155Y0095743D01*
X0072014Y0095763D01*
X0071872Y0095779D01*
X0071730Y0095791D01*
X0071588Y0095799D01*
X0071446Y0095803D01*
X0071304Y0095803D01*
X0071162Y0095799D01*
X0071020Y0095791D01*
X0070878Y0095779D01*
X0070736Y0095763D01*
X0070595Y0095743D01*
X0070455Y0095720D01*
X0070316Y0095692D01*
X0070177Y0095661D01*
X0070039Y0095626D01*
X0069902Y0095586D01*
X0069766Y0095544D01*
X0069632Y0095497D01*
X0069499Y0095447D01*
X0069367Y0095393D01*
X0069237Y0095335D01*
X0069109Y0095274D01*
X0068982Y0095209D01*
X0068857Y0095141D01*
X0068734Y0095069D01*
X0068613Y0094994D01*
X0068495Y0094916D01*
X0068378Y0094834D01*
X0068264Y0094749D01*
X0068152Y0094661D01*
X0068043Y0094570D01*
X0067936Y0094476D01*
X0067832Y0094379D01*
X0067731Y0094279D01*
X0067632Y0094176D01*
X0067537Y0094071D01*
X0067444Y0093963D01*
X0067355Y0093852D01*
X0067268Y0093739D01*
X0067185Y0093624D01*
X0067105Y0093506D01*
X0067028Y0093386D01*
X0066955Y0093265D01*
X0066885Y0093141D01*
X0066818Y0093015D01*
X0066755Y0092887D01*
X0066696Y0092758D01*
X0066640Y0092627D01*
X0066588Y0092495D01*
X0066539Y0092361D01*
X0066494Y0092226D01*
X0066454Y0092090D01*
X0066416Y0091952D01*
X0066383Y0091814D01*
X0066354Y0091675D01*
X0066328Y0091535D01*
X0066306Y0091394D01*
X0066289Y0091253D01*
X0066275Y0091111D01*
X0066265Y0090969D01*
X0066259Y0090827D01*
X0066257Y0090685D01*
X0059564Y0090685D01*
X0059375Y0090874D02*
X0059375Y0093874D01*
X0051575Y0078638D02*
X0081575Y0078638D01*
X0081575Y0068638D01*
X0051575Y0068638D01*
X0051575Y0078638D01*
X0060575Y0073638D02*
X0065575Y0073638D01*
X0067575Y0073638D02*
X0072575Y0073638D01*
X0067575Y0070638D02*
X0067575Y0076638D01*
X0065575Y0076638D02*
X0065575Y0070638D01*
X0105857Y0044925D02*
X0108219Y0044925D01*
X0159485Y0065256D02*
X0159485Y0067618D01*
X0184878Y0109189D02*
X0184880Y0109342D01*
X0184886Y0109496D01*
X0184896Y0109649D01*
X0184910Y0109801D01*
X0184928Y0109954D01*
X0184950Y0110105D01*
X0184975Y0110256D01*
X0185005Y0110407D01*
X0185039Y0110557D01*
X0185076Y0110705D01*
X0185117Y0110853D01*
X0185162Y0110999D01*
X0185211Y0111145D01*
X0185264Y0111289D01*
X0185320Y0111431D01*
X0185380Y0111572D01*
X0185444Y0111712D01*
X0185511Y0111850D01*
X0185582Y0111986D01*
X0185657Y0112120D01*
X0185734Y0112252D01*
X0185816Y0112382D01*
X0185900Y0112510D01*
X0185988Y0112636D01*
X0186079Y0112759D01*
X0186173Y0112880D01*
X0186271Y0112998D01*
X0186371Y0113114D01*
X0186475Y0113227D01*
X0186581Y0113338D01*
X0186690Y0113446D01*
X0186802Y0113551D01*
X0186916Y0113652D01*
X0187034Y0113751D01*
X0187153Y0113847D01*
X0187275Y0113940D01*
X0187400Y0114029D01*
X0187527Y0114116D01*
X0187656Y0114198D01*
X0187787Y0114278D01*
X0187920Y0114354D01*
X0188055Y0114427D01*
X0188192Y0114496D01*
X0188331Y0114561D01*
X0188471Y0114623D01*
X0188613Y0114681D01*
X0188756Y0114736D01*
X0188901Y0114787D01*
X0189047Y0114834D01*
X0189194Y0114877D01*
X0189342Y0114916D01*
X0189491Y0114952D01*
X0189641Y0114983D01*
X0189792Y0115011D01*
X0189943Y0115035D01*
X0190096Y0115055D01*
X0190248Y0115071D01*
X0190401Y0115083D01*
X0190554Y0115091D01*
X0190707Y0115095D01*
X0190861Y0115095D01*
X0191014Y0115091D01*
X0191167Y0115083D01*
X0191320Y0115071D01*
X0191472Y0115055D01*
X0191625Y0115035D01*
X0191776Y0115011D01*
X0191927Y0114983D01*
X0192077Y0114952D01*
X0192226Y0114916D01*
X0192374Y0114877D01*
X0192521Y0114834D01*
X0192667Y0114787D01*
X0192812Y0114736D01*
X0192955Y0114681D01*
X0193097Y0114623D01*
X0193237Y0114561D01*
X0193376Y0114496D01*
X0193513Y0114427D01*
X0193648Y0114354D01*
X0193781Y0114278D01*
X0193912Y0114198D01*
X0194041Y0114116D01*
X0194168Y0114029D01*
X0194293Y0113940D01*
X0194415Y0113847D01*
X0194534Y0113751D01*
X0194652Y0113652D01*
X0194766Y0113551D01*
X0194878Y0113446D01*
X0194987Y0113338D01*
X0195093Y0113227D01*
X0195197Y0113114D01*
X0195297Y0112998D01*
X0195395Y0112880D01*
X0195489Y0112759D01*
X0195580Y0112636D01*
X0195668Y0112510D01*
X0195752Y0112382D01*
X0195834Y0112252D01*
X0195911Y0112120D01*
X0195986Y0111986D01*
X0196057Y0111850D01*
X0196124Y0111712D01*
X0196188Y0111572D01*
X0196248Y0111431D01*
X0196304Y0111289D01*
X0196357Y0111145D01*
X0196406Y0110999D01*
X0196451Y0110853D01*
X0196492Y0110705D01*
X0196529Y0110557D01*
X0196563Y0110407D01*
X0196593Y0110256D01*
X0196618Y0110105D01*
X0196640Y0109954D01*
X0196658Y0109801D01*
X0196672Y0109649D01*
X0196682Y0109496D01*
X0196688Y0109342D01*
X0196690Y0109189D01*
X0196688Y0109036D01*
X0196682Y0108882D01*
X0196672Y0108729D01*
X0196658Y0108577D01*
X0196640Y0108424D01*
X0196618Y0108273D01*
X0196593Y0108122D01*
X0196563Y0107971D01*
X0196529Y0107821D01*
X0196492Y0107673D01*
X0196451Y0107525D01*
X0196406Y0107379D01*
X0196357Y0107233D01*
X0196304Y0107089D01*
X0196248Y0106947D01*
X0196188Y0106806D01*
X0196124Y0106666D01*
X0196057Y0106528D01*
X0195986Y0106392D01*
X0195911Y0106258D01*
X0195834Y0106126D01*
X0195752Y0105996D01*
X0195668Y0105868D01*
X0195580Y0105742D01*
X0195489Y0105619D01*
X0195395Y0105498D01*
X0195297Y0105380D01*
X0195197Y0105264D01*
X0195093Y0105151D01*
X0194987Y0105040D01*
X0194878Y0104932D01*
X0194766Y0104827D01*
X0194652Y0104726D01*
X0194534Y0104627D01*
X0194415Y0104531D01*
X0194293Y0104438D01*
X0194168Y0104349D01*
X0194041Y0104262D01*
X0193912Y0104180D01*
X0193781Y0104100D01*
X0193648Y0104024D01*
X0193513Y0103951D01*
X0193376Y0103882D01*
X0193237Y0103817D01*
X0193097Y0103755D01*
X0192955Y0103697D01*
X0192812Y0103642D01*
X0192667Y0103591D01*
X0192521Y0103544D01*
X0192374Y0103501D01*
X0192226Y0103462D01*
X0192077Y0103426D01*
X0191927Y0103395D01*
X0191776Y0103367D01*
X0191625Y0103343D01*
X0191472Y0103323D01*
X0191320Y0103307D01*
X0191167Y0103295D01*
X0191014Y0103287D01*
X0190861Y0103283D01*
X0190707Y0103283D01*
X0190554Y0103287D01*
X0190401Y0103295D01*
X0190248Y0103307D01*
X0190096Y0103323D01*
X0189943Y0103343D01*
X0189792Y0103367D01*
X0189641Y0103395D01*
X0189491Y0103426D01*
X0189342Y0103462D01*
X0189194Y0103501D01*
X0189047Y0103544D01*
X0188901Y0103591D01*
X0188756Y0103642D01*
X0188613Y0103697D01*
X0188471Y0103755D01*
X0188331Y0103817D01*
X0188192Y0103882D01*
X0188055Y0103951D01*
X0187920Y0104024D01*
X0187787Y0104100D01*
X0187656Y0104180D01*
X0187527Y0104262D01*
X0187400Y0104349D01*
X0187275Y0104438D01*
X0187153Y0104531D01*
X0187034Y0104627D01*
X0186916Y0104726D01*
X0186802Y0104827D01*
X0186690Y0104932D01*
X0186581Y0105040D01*
X0186475Y0105151D01*
X0186371Y0105264D01*
X0186271Y0105380D01*
X0186173Y0105498D01*
X0186079Y0105619D01*
X0185988Y0105742D01*
X0185900Y0105868D01*
X0185816Y0105996D01*
X0185734Y0106126D01*
X0185657Y0106258D01*
X0185582Y0106392D01*
X0185511Y0106528D01*
X0185444Y0106666D01*
X0185380Y0106806D01*
X0185320Y0106947D01*
X0185264Y0107089D01*
X0185211Y0107233D01*
X0185162Y0107379D01*
X0185117Y0107525D01*
X0185076Y0107673D01*
X0185039Y0107821D01*
X0185005Y0107971D01*
X0184975Y0108122D01*
X0184950Y0108273D01*
X0184928Y0108424D01*
X0184910Y0108577D01*
X0184896Y0108729D01*
X0184886Y0108882D01*
X0184880Y0109036D01*
X0184878Y0109189D01*
X0155351Y0109189D02*
X0155362Y0110059D01*
X0155394Y0110928D01*
X0155447Y0111796D01*
X0155522Y0112662D01*
X0155617Y0113526D01*
X0155735Y0114388D01*
X0155873Y0115247D01*
X0156032Y0116102D01*
X0156212Y0116952D01*
X0156413Y0117799D01*
X0156635Y0118639D01*
X0156877Y0119475D01*
X0157139Y0120304D01*
X0157422Y0121126D01*
X0157725Y0121941D01*
X0158048Y0122749D01*
X0158391Y0123548D01*
X0158753Y0124339D01*
X0159134Y0125120D01*
X0159535Y0125892D01*
X0159954Y0126654D01*
X0160392Y0127405D01*
X0160848Y0128146D01*
X0161323Y0128875D01*
X0161815Y0129592D01*
X0162324Y0130296D01*
X0162851Y0130989D01*
X0163394Y0131667D01*
X0163954Y0132333D01*
X0164530Y0132984D01*
X0165122Y0133621D01*
X0165729Y0134244D01*
X0166352Y0134851D01*
X0166989Y0135443D01*
X0167640Y0136019D01*
X0168306Y0136579D01*
X0168984Y0137122D01*
X0169677Y0137649D01*
X0170381Y0138158D01*
X0171098Y0138650D01*
X0171827Y0139125D01*
X0172568Y0139581D01*
X0173319Y0140019D01*
X0174081Y0140438D01*
X0174853Y0140839D01*
X0175634Y0141220D01*
X0176425Y0141582D01*
X0177224Y0141925D01*
X0178032Y0142248D01*
X0178847Y0142551D01*
X0179669Y0142834D01*
X0180498Y0143096D01*
X0181334Y0143338D01*
X0182174Y0143560D01*
X0183021Y0143761D01*
X0183871Y0143941D01*
X0184726Y0144100D01*
X0185585Y0144238D01*
X0186447Y0144356D01*
X0187311Y0144451D01*
X0188177Y0144526D01*
X0189045Y0144579D01*
X0189914Y0144611D01*
X0190784Y0144622D01*
X0191654Y0144611D01*
X0192523Y0144579D01*
X0193391Y0144526D01*
X0194257Y0144451D01*
X0195121Y0144356D01*
X0195983Y0144238D01*
X0196842Y0144100D01*
X0197697Y0143941D01*
X0198547Y0143761D01*
X0199394Y0143560D01*
X0200234Y0143338D01*
X0201070Y0143096D01*
X0201899Y0142834D01*
X0202721Y0142551D01*
X0203536Y0142248D01*
X0204344Y0141925D01*
X0205143Y0141582D01*
X0205934Y0141220D01*
X0206715Y0140839D01*
X0207487Y0140438D01*
X0208249Y0140019D01*
X0209000Y0139581D01*
X0209741Y0139125D01*
X0210470Y0138650D01*
X0211187Y0138158D01*
X0211891Y0137649D01*
X0212584Y0137122D01*
X0213262Y0136579D01*
X0213928Y0136019D01*
X0214579Y0135443D01*
X0215216Y0134851D01*
X0215839Y0134244D01*
X0216446Y0133621D01*
X0217038Y0132984D01*
X0217614Y0132333D01*
X0218174Y0131667D01*
X0218717Y0130989D01*
X0219244Y0130296D01*
X0219753Y0129592D01*
X0220245Y0128875D01*
X0220720Y0128146D01*
X0221176Y0127405D01*
X0221614Y0126654D01*
X0222033Y0125892D01*
X0222434Y0125120D01*
X0222815Y0124339D01*
X0223177Y0123548D01*
X0223520Y0122749D01*
X0223843Y0121941D01*
X0224146Y0121126D01*
X0224429Y0120304D01*
X0224691Y0119475D01*
X0224933Y0118639D01*
X0225155Y0117799D01*
X0225356Y0116952D01*
X0225536Y0116102D01*
X0225695Y0115247D01*
X0225833Y0114388D01*
X0225951Y0113526D01*
X0226046Y0112662D01*
X0226121Y0111796D01*
X0226174Y0110928D01*
X0226206Y0110059D01*
X0226217Y0109189D01*
X0226206Y0108319D01*
X0226174Y0107450D01*
X0226121Y0106582D01*
X0226046Y0105716D01*
X0225951Y0104852D01*
X0225833Y0103990D01*
X0225695Y0103131D01*
X0225536Y0102276D01*
X0225356Y0101426D01*
X0225155Y0100579D01*
X0224933Y0099739D01*
X0224691Y0098903D01*
X0224429Y0098074D01*
X0224146Y0097252D01*
X0223843Y0096437D01*
X0223520Y0095629D01*
X0223177Y0094830D01*
X0222815Y0094039D01*
X0222434Y0093258D01*
X0222033Y0092486D01*
X0221614Y0091724D01*
X0221176Y0090973D01*
X0220720Y0090232D01*
X0220245Y0089503D01*
X0219753Y0088786D01*
X0219244Y0088082D01*
X0218717Y0087389D01*
X0218174Y0086711D01*
X0217614Y0086045D01*
X0217038Y0085394D01*
X0216446Y0084757D01*
X0215839Y0084134D01*
X0215216Y0083527D01*
X0214579Y0082935D01*
X0213928Y0082359D01*
X0213262Y0081799D01*
X0212584Y0081256D01*
X0211891Y0080729D01*
X0211187Y0080220D01*
X0210470Y0079728D01*
X0209741Y0079253D01*
X0209000Y0078797D01*
X0208249Y0078359D01*
X0207487Y0077940D01*
X0206715Y0077539D01*
X0205934Y0077158D01*
X0205143Y0076796D01*
X0204344Y0076453D01*
X0203536Y0076130D01*
X0202721Y0075827D01*
X0201899Y0075544D01*
X0201070Y0075282D01*
X0200234Y0075040D01*
X0199394Y0074818D01*
X0198547Y0074617D01*
X0197697Y0074437D01*
X0196842Y0074278D01*
X0195983Y0074140D01*
X0195121Y0074022D01*
X0194257Y0073927D01*
X0193391Y0073852D01*
X0192523Y0073799D01*
X0191654Y0073767D01*
X0190784Y0073756D01*
X0189914Y0073767D01*
X0189045Y0073799D01*
X0188177Y0073852D01*
X0187311Y0073927D01*
X0186447Y0074022D01*
X0185585Y0074140D01*
X0184726Y0074278D01*
X0183871Y0074437D01*
X0183021Y0074617D01*
X0182174Y0074818D01*
X0181334Y0075040D01*
X0180498Y0075282D01*
X0179669Y0075544D01*
X0178847Y0075827D01*
X0178032Y0076130D01*
X0177224Y0076453D01*
X0176425Y0076796D01*
X0175634Y0077158D01*
X0174853Y0077539D01*
X0174081Y0077940D01*
X0173319Y0078359D01*
X0172568Y0078797D01*
X0171827Y0079253D01*
X0171098Y0079728D01*
X0170381Y0080220D01*
X0169677Y0080729D01*
X0168984Y0081256D01*
X0168306Y0081799D01*
X0167640Y0082359D01*
X0166989Y0082935D01*
X0166352Y0083527D01*
X0165729Y0084134D01*
X0165122Y0084757D01*
X0164530Y0085394D01*
X0163954Y0086045D01*
X0163394Y0086711D01*
X0162851Y0087389D01*
X0162324Y0088082D01*
X0161815Y0088786D01*
X0161323Y0089503D01*
X0160848Y0090232D01*
X0160392Y0090973D01*
X0159954Y0091724D01*
X0159535Y0092486D01*
X0159134Y0093258D01*
X0158753Y0094039D01*
X0158391Y0094830D01*
X0158048Y0095629D01*
X0157725Y0096437D01*
X0157422Y0097252D01*
X0157139Y0098074D01*
X0156877Y0098903D01*
X0156635Y0099739D01*
X0156413Y0100579D01*
X0156212Y0101426D01*
X0156032Y0102276D01*
X0155873Y0103131D01*
X0155735Y0103990D01*
X0155617Y0104852D01*
X0155522Y0105716D01*
X0155447Y0106582D01*
X0155394Y0107450D01*
X0155362Y0108319D01*
X0155351Y0109189D01*
X0083375Y0163874D02*
X0083375Y0166874D01*
X0083186Y0167063D02*
X0059564Y0167063D01*
X0059375Y0166874D02*
X0059375Y0163874D01*
D12*
X0066373Y0141351D02*
X0066373Y0138282D01*
X0064071Y0140584D01*
X0068675Y0140584D01*
X0068675Y0136747D02*
X0068675Y0133678D01*
X0068675Y0135213D02*
X0064071Y0135213D01*
X0065605Y0133678D01*
X0064838Y0132143D02*
X0064071Y0131376D01*
X0064071Y0129841D01*
X0064838Y0129074D01*
X0067907Y0129074D01*
X0068675Y0129841D01*
X0068675Y0131376D01*
X0067907Y0132143D01*
X0068675Y0127539D02*
X0064071Y0127539D01*
X0066373Y0127539D02*
X0066373Y0124470D01*
X0066373Y0122935D02*
X0066373Y0119866D01*
X0064071Y0122168D01*
X0068675Y0122168D01*
X0068675Y0124470D02*
X0064071Y0124470D01*
X0064071Y0118331D02*
X0064838Y0118331D01*
X0067907Y0115262D01*
X0068675Y0115262D01*
X0064071Y0115262D02*
X0064071Y0118331D01*
X0066971Y0088678D02*
X0066971Y0084841D01*
X0067738Y0084074D01*
X0069273Y0084074D01*
X0070040Y0084841D01*
X0070040Y0088678D01*
X0071575Y0087143D02*
X0073109Y0088678D01*
X0073109Y0084074D01*
X0071575Y0084074D02*
X0074644Y0084074D01*
X0069077Y0067442D02*
X0069844Y0066674D01*
X0069844Y0065907D01*
X0069077Y0065140D01*
X0069844Y0064372D01*
X0069844Y0063605D01*
X0069077Y0062838D01*
X0067542Y0062838D01*
X0066775Y0063605D01*
X0065240Y0063605D02*
X0064473Y0062838D01*
X0062938Y0062838D01*
X0062171Y0063605D01*
X0062171Y0066674D01*
X0062938Y0067442D01*
X0064473Y0067442D01*
X0065240Y0066674D01*
X0066775Y0066674D02*
X0067542Y0067442D01*
X0069077Y0067442D01*
X0069077Y0065140D02*
X0068309Y0065140D01*
X0112382Y0058115D02*
X0112382Y0053511D01*
X0112382Y0055046D02*
X0114684Y0055046D01*
X0115451Y0055813D01*
X0115451Y0057348D01*
X0114684Y0058115D01*
X0112382Y0058115D01*
X0113916Y0055046D02*
X0115451Y0053511D01*
X0116986Y0053511D02*
X0120055Y0053511D01*
X0118520Y0053511D02*
X0118520Y0058115D01*
X0116986Y0056580D01*
X0141695Y0055826D02*
X0141695Y0060430D01*
X0143997Y0060430D01*
X0144764Y0059663D01*
X0144764Y0058128D01*
X0143997Y0057361D01*
X0141695Y0057361D01*
X0143230Y0057361D02*
X0144764Y0055826D01*
X0146299Y0056593D02*
X0147066Y0055826D01*
X0148601Y0055826D01*
X0149368Y0056593D01*
X0149368Y0057361D01*
X0148601Y0058128D01*
X0147834Y0058128D01*
X0148601Y0058128D02*
X0149368Y0058895D01*
X0149368Y0059663D01*
X0148601Y0060430D01*
X0147066Y0060430D01*
X0146299Y0059663D01*
X0147066Y0040898D02*
X0146299Y0040131D01*
X0147066Y0040898D02*
X0148601Y0040898D01*
X0149368Y0040131D01*
X0149368Y0039364D01*
X0146299Y0036294D01*
X0149368Y0036294D01*
X0144764Y0036294D02*
X0143230Y0037829D01*
X0143997Y0037829D02*
X0141695Y0037829D01*
X0141695Y0036294D02*
X0141695Y0040898D01*
X0143997Y0040898D01*
X0144764Y0040131D01*
X0144764Y0038596D01*
X0143997Y0037829D01*
X0133286Y0017087D02*
X0131751Y0017087D01*
X0130984Y0016320D01*
X0129449Y0016320D02*
X0128682Y0017087D01*
X0127147Y0017087D01*
X0126380Y0016320D01*
X0126380Y0013251D01*
X0127147Y0012483D01*
X0128682Y0012483D01*
X0129449Y0013251D01*
X0130984Y0012483D02*
X0134053Y0015553D01*
X0134053Y0016320D01*
X0133286Y0017087D01*
X0134053Y0012483D02*
X0130984Y0012483D01*
X0098738Y0013074D02*
X0095669Y0013074D01*
X0097204Y0013074D02*
X0097204Y0017678D01*
X0095669Y0016143D01*
X0094134Y0016911D02*
X0093367Y0017678D01*
X0091833Y0017678D01*
X0091065Y0016911D01*
X0091065Y0013841D01*
X0091833Y0013074D01*
X0093367Y0013074D01*
X0094134Y0013841D01*
X0062518Y0014672D02*
X0059449Y0014672D01*
X0060983Y0014672D02*
X0060983Y0019276D01*
X0059449Y0017742D01*
X0057914Y0019276D02*
X0056379Y0019276D01*
X0057147Y0019276D02*
X0057147Y0015440D01*
X0056379Y0014672D01*
X0055612Y0014672D01*
X0054845Y0015440D01*
X0185782Y0063050D02*
X0188851Y0067654D01*
X0190386Y0066120D02*
X0191920Y0067654D01*
X0191920Y0063050D01*
X0190386Y0063050D02*
X0193455Y0063050D01*
X0188851Y0063050D02*
X0185782Y0067654D01*
D13*
X0147268Y0110173D02*
X0147268Y0159173D01*
X0143768Y0159173D01*
X0143768Y0165173D01*
X0147268Y0165173D01*
X0147268Y0172673D01*
X0106268Y0172673D01*
X0106268Y0165173D01*
X0109768Y0165173D01*
X0109768Y0159173D01*
X0106268Y0159173D01*
X0106268Y0110173D01*
X0147268Y0110173D01*
X0120292Y0145289D02*
X0121426Y0146423D01*
X0120859Y0146423D01*
X0120859Y0146990D01*
X0121426Y0146990D01*
X0121426Y0146423D01*
X0122686Y0146990D02*
X0123253Y0146423D01*
X0124387Y0146423D01*
X0124954Y0146990D01*
X0124954Y0148125D01*
X0124387Y0148692D01*
X0123820Y0148692D01*
X0122686Y0148125D01*
X0122686Y0149826D01*
X0124954Y0149826D01*
X0126277Y0148692D02*
X0126844Y0148692D01*
X0127411Y0148125D01*
X0127978Y0148692D01*
X0128545Y0148125D01*
X0128545Y0146423D01*
X0127411Y0146423D02*
X0127411Y0148125D01*
X0126277Y0148692D02*
X0126277Y0146423D01*
X0129868Y0146423D02*
X0129868Y0148692D01*
X0130435Y0148692D01*
X0131002Y0148125D01*
X0131569Y0148692D01*
X0132136Y0148125D01*
X0132136Y0146423D01*
X0131002Y0146423D02*
X0131002Y0148125D01*
X0119668Y0159173D02*
X0119670Y0159347D01*
X0119677Y0159521D01*
X0119687Y0159695D01*
X0119702Y0159869D01*
X0119721Y0160042D01*
X0119745Y0160215D01*
X0119773Y0160387D01*
X0119804Y0160558D01*
X0119841Y0160729D01*
X0119881Y0160898D01*
X0119925Y0161067D01*
X0119974Y0161234D01*
X0120026Y0161400D01*
X0120083Y0161565D01*
X0120144Y0161728D01*
X0120208Y0161890D01*
X0120277Y0162050D01*
X0120350Y0162209D01*
X0120426Y0162365D01*
X0120506Y0162520D01*
X0120590Y0162673D01*
X0120678Y0162823D01*
X0120770Y0162971D01*
X0120865Y0163118D01*
X0120963Y0163261D01*
X0121065Y0163402D01*
X0121171Y0163541D01*
X0121280Y0163677D01*
X0121392Y0163811D01*
X0121507Y0163941D01*
X0121626Y0164069D01*
X0121748Y0164193D01*
X0121872Y0164315D01*
X0122000Y0164434D01*
X0122130Y0164549D01*
X0122264Y0164661D01*
X0122400Y0164770D01*
X0122539Y0164876D01*
X0122680Y0164978D01*
X0122823Y0165076D01*
X0122970Y0165171D01*
X0123118Y0165263D01*
X0123268Y0165351D01*
X0123421Y0165435D01*
X0123576Y0165515D01*
X0123732Y0165591D01*
X0123891Y0165664D01*
X0124051Y0165733D01*
X0124213Y0165797D01*
X0124376Y0165858D01*
X0124541Y0165915D01*
X0124707Y0165967D01*
X0124874Y0166016D01*
X0125043Y0166060D01*
X0125212Y0166100D01*
X0125383Y0166137D01*
X0125554Y0166168D01*
X0125726Y0166196D01*
X0125899Y0166220D01*
X0126072Y0166239D01*
X0126246Y0166254D01*
X0126420Y0166264D01*
X0126594Y0166271D01*
X0126768Y0166273D01*
X0126942Y0166271D01*
X0127116Y0166264D01*
X0127290Y0166254D01*
X0127464Y0166239D01*
X0127637Y0166220D01*
X0127810Y0166196D01*
X0127982Y0166168D01*
X0128153Y0166137D01*
X0128324Y0166100D01*
X0128493Y0166060D01*
X0128662Y0166016D01*
X0128829Y0165967D01*
X0128995Y0165915D01*
X0129160Y0165858D01*
X0129323Y0165797D01*
X0129485Y0165733D01*
X0129645Y0165664D01*
X0129804Y0165591D01*
X0129960Y0165515D01*
X0130115Y0165435D01*
X0130268Y0165351D01*
X0130418Y0165263D01*
X0130566Y0165171D01*
X0130713Y0165076D01*
X0130856Y0164978D01*
X0130997Y0164876D01*
X0131136Y0164770D01*
X0131272Y0164661D01*
X0131406Y0164549D01*
X0131536Y0164434D01*
X0131664Y0164315D01*
X0131788Y0164193D01*
X0131910Y0164069D01*
X0132029Y0163941D01*
X0132144Y0163811D01*
X0132256Y0163677D01*
X0132365Y0163541D01*
X0132471Y0163402D01*
X0132573Y0163261D01*
X0132671Y0163118D01*
X0132766Y0162971D01*
X0132858Y0162823D01*
X0132946Y0162673D01*
X0133030Y0162520D01*
X0133110Y0162365D01*
X0133186Y0162209D01*
X0133259Y0162050D01*
X0133328Y0161890D01*
X0133392Y0161728D01*
X0133453Y0161565D01*
X0133510Y0161400D01*
X0133562Y0161234D01*
X0133611Y0161067D01*
X0133655Y0160898D01*
X0133695Y0160729D01*
X0133732Y0160558D01*
X0133763Y0160387D01*
X0133791Y0160215D01*
X0133815Y0160042D01*
X0133834Y0159869D01*
X0133849Y0159695D01*
X0133859Y0159521D01*
X0133866Y0159347D01*
X0133868Y0159173D01*
X0133866Y0158999D01*
X0133859Y0158825D01*
X0133849Y0158651D01*
X0133834Y0158477D01*
X0133815Y0158304D01*
X0133791Y0158131D01*
X0133763Y0157959D01*
X0133732Y0157788D01*
X0133695Y0157617D01*
X0133655Y0157448D01*
X0133611Y0157279D01*
X0133562Y0157112D01*
X0133510Y0156946D01*
X0133453Y0156781D01*
X0133392Y0156618D01*
X0133328Y0156456D01*
X0133259Y0156296D01*
X0133186Y0156137D01*
X0133110Y0155981D01*
X0133030Y0155826D01*
X0132946Y0155673D01*
X0132858Y0155523D01*
X0132766Y0155375D01*
X0132671Y0155228D01*
X0132573Y0155085D01*
X0132471Y0154944D01*
X0132365Y0154805D01*
X0132256Y0154669D01*
X0132144Y0154535D01*
X0132029Y0154405D01*
X0131910Y0154277D01*
X0131788Y0154153D01*
X0131664Y0154031D01*
X0131536Y0153912D01*
X0131406Y0153797D01*
X0131272Y0153685D01*
X0131136Y0153576D01*
X0130997Y0153470D01*
X0130856Y0153368D01*
X0130713Y0153270D01*
X0130566Y0153175D01*
X0130418Y0153083D01*
X0130268Y0152995D01*
X0130115Y0152911D01*
X0129960Y0152831D01*
X0129804Y0152755D01*
X0129645Y0152682D01*
X0129485Y0152613D01*
X0129323Y0152549D01*
X0129160Y0152488D01*
X0128995Y0152431D01*
X0128829Y0152379D01*
X0128662Y0152330D01*
X0128493Y0152286D01*
X0128324Y0152246D01*
X0128153Y0152209D01*
X0127982Y0152178D01*
X0127810Y0152150D01*
X0127637Y0152126D01*
X0127464Y0152107D01*
X0127290Y0152092D01*
X0127116Y0152082D01*
X0126942Y0152075D01*
X0126768Y0152073D01*
X0126594Y0152075D01*
X0126420Y0152082D01*
X0126246Y0152092D01*
X0126072Y0152107D01*
X0125899Y0152126D01*
X0125726Y0152150D01*
X0125554Y0152178D01*
X0125383Y0152209D01*
X0125212Y0152246D01*
X0125043Y0152286D01*
X0124874Y0152330D01*
X0124707Y0152379D01*
X0124541Y0152431D01*
X0124376Y0152488D01*
X0124213Y0152549D01*
X0124051Y0152613D01*
X0123891Y0152682D01*
X0123732Y0152755D01*
X0123576Y0152831D01*
X0123421Y0152911D01*
X0123268Y0152995D01*
X0123118Y0153083D01*
X0122970Y0153175D01*
X0122823Y0153270D01*
X0122680Y0153368D01*
X0122539Y0153470D01*
X0122400Y0153576D01*
X0122264Y0153685D01*
X0122130Y0153797D01*
X0122000Y0153912D01*
X0121872Y0154031D01*
X0121748Y0154153D01*
X0121626Y0154277D01*
X0121507Y0154405D01*
X0121392Y0154535D01*
X0121280Y0154669D01*
X0121171Y0154805D01*
X0121065Y0154944D01*
X0120963Y0155085D01*
X0120865Y0155228D01*
X0120770Y0155375D01*
X0120678Y0155523D01*
X0120590Y0155673D01*
X0120506Y0155826D01*
X0120426Y0155981D01*
X0120350Y0156137D01*
X0120277Y0156296D01*
X0120208Y0156456D01*
X0120144Y0156618D01*
X0120083Y0156781D01*
X0120026Y0156946D01*
X0119974Y0157112D01*
X0119925Y0157279D01*
X0119881Y0157448D01*
X0119841Y0157617D01*
X0119804Y0157788D01*
X0119773Y0157959D01*
X0119745Y0158131D01*
X0119721Y0158304D01*
X0119702Y0158477D01*
X0119687Y0158651D01*
X0119677Y0158825D01*
X0119670Y0158999D01*
X0119668Y0159173D01*
X0118969Y0149826D02*
X0116701Y0149826D01*
X0118969Y0149826D02*
X0118969Y0149259D01*
X0116701Y0146990D01*
X0116701Y0146423D01*
X0115378Y0146423D02*
X0113109Y0146423D01*
X0114244Y0146423D02*
X0114244Y0149826D01*
X0113109Y0148692D01*
X0111787Y0148692D02*
X0111787Y0146423D01*
X0111787Y0148125D02*
X0109518Y0148125D01*
X0109518Y0148692D02*
X0109518Y0146423D01*
X0109518Y0148692D02*
X0110653Y0149826D01*
X0111787Y0148692D01*
X0086354Y0036266D02*
X0086354Y0031762D01*
X0084853Y0031762D02*
X0087856Y0031762D01*
X0084853Y0034764D02*
X0086354Y0036266D01*
X0083252Y0035515D02*
X0082501Y0036266D01*
X0081000Y0036266D01*
X0080249Y0035515D01*
X0080249Y0034764D01*
X0081000Y0034014D01*
X0082501Y0034014D01*
X0083252Y0033263D01*
X0083252Y0032512D01*
X0082501Y0031762D01*
X0081000Y0031762D01*
X0080249Y0032512D01*
D14*
X0108768Y0112673D02*
X0108768Y0145173D01*
X0144768Y0145173D01*
X0144768Y0112673D01*
X0108768Y0112673D01*
D15*
X0116768Y0097923D03*
X0126768Y0097923D03*
X0136768Y0097923D03*
D16*
X0136768Y0104673D03*
X0126768Y0104673D03*
X0116768Y0104673D03*
D17*
X0116322Y0136023D02*
X0114220Y0138125D01*
X0113169Y0136023D02*
X0112118Y0137074D01*
X0112118Y0141278D01*
X0113169Y0142329D01*
X0115271Y0142329D01*
X0116322Y0141278D01*
X0116322Y0137074D01*
X0115271Y0136023D01*
X0113169Y0136023D01*
X0118564Y0136023D02*
X0122767Y0136023D01*
X0120666Y0136023D02*
X0120666Y0142329D01*
X0118564Y0140227D01*
M02*
